<svg id="Layer_1" data-name="Layer 1" xmlns="http://www.w3.org/2000/svg" viewBox="0 0 46.77 37915.53"><defs><style>.cls-1,.cls-3,.cls-9{fill:none;}.cls-1,.cls-2,.cls-3,.cls-4,.cls-5,.cls-6,.cls-7,.cls-8,.cls-9{stroke:#231f20;}.cls-1,.cls-2,.cls-3,.cls-4,.cls-5,.cls-7,.cls-8,.cls-9{stroke-linejoin:bevel;}.cls-2{fill:#4fc1c0;}.cls-3,.cls-5{stroke-width:0.5px;}.cls-4,.cls-6{fill:#faec46;}.cls-5{fill:#894f9d;}.cls-6{stroke-miterlimit:10;}.cls-7{fill:#9e4a9a;}.cls-8{fill:#e41d74;}.cls-9{stroke-width:0.25px;}</style></defs><line class="cls-1" x1="36.85" y1="7.59" x2="36.58" y2="34.4"/><polyline class="cls-2" points="21.57 0.46 8.12 6.59 7.66 6.59 23.95 13.81 36.94 7.96 21.11 0.46"/><line class="cls-3" x1="23.9" y1="40.44" x2="30.77" y2="43.83"/><line class="cls-4" x1="46.47" y1="38.49" x2="26.56" y2="52.76"/><line class="cls-4" x1="27.11" y1="52.5" x2="15.67" y2="57.26"/><polyline class="cls-5" points="7.84 7.02 7.75 34.38 7.66 33.78 0.25 29.88 0.25 29.34 15.35 56.74 15.24 57.41 31.09 44.19 24.22 40.81 23.95 13.81"/><line class="cls-1" x1="0.25" y1="29.88" x2="7.78" y2="26.14"/><polygon class="cls-2" points="30.77 44.32 46.1 38.21 36.11 34.19 37.52 34.73 23.69 40.7 30.77 44.32"/><polygon class="cls-2" points="7.39 25.99 0.64 29.88 7.39 33.78 7.39 25.99"/><rect class="cls-6" x="33.49" y="37892.14" width="12.77" height="25.72" transform="translate(-32815.54 18984.92) rotate(-60)"/><line class="cls-7" x1="36.94" y1="7.96" x2="36.58" y2="34.4"/><polyline class="cls-8" points="36.58 34.4 23.9 40.44 23.95 13.81 36.94 7.96"/><polyline class="cls-8" points="46.48 38.49 27.11 52.5 26.56 52.76 16.69 56.39 15.67 57.26 31.09 44.19"/><line class="cls-9" x1="31.09" y1="44.19" x2="45.3" y2="38.54"/></svg>