<svg id="Layer_1" data-name="Layer 1" xmlns="http://www.w3.org/2000/svg" viewBox="0 0 49.66 61.6"><defs><style>.cls-1,.cls-3,.cls-6{fill:none;}.cls-1,.cls-2,.cls-3,.cls-4,.cls-5,.cls-6{stroke:#231f20;stroke-linejoin:bevel;}.cls-1,.cls-2,.cls-5{stroke-width:0.22px;}.cls-2{fill:#50c1c0;}.cls-3,.cls-4{stroke-width:0.11px;}.cls-4{fill:#8a509e;}.cls-5{fill:#e41f75;}.cls-6{stroke-width:0.05px;}</style></defs><line class="cls-1" x1="38.68" y1="7.59" x2="38.19" y2="36.57"/><polyline class="cls-2" points="22.54 0.1 8.36 6.59 7.87 6.59 24.99 14.09 38.68 8.09 22.05 0.1"/><line class="cls-3" x1="24.99" y1="43.07" x2="32.32" y2="46.57"/><line class="cls-1" x1="48.95" y1="41.07" x2="27.92" y2="56.56"/><line class="cls-1" x1="28.41" y1="56.06" x2="16.18" y2="61.06"/><polyline class="cls-4" points="8.46 7.09 8.46 36.57 8.46 36.07 0.64 31.58 0.64 31.08 16.28 60.56 16.28 61.56 32.91 47.07 26.06 43.57 25.57 14.09"/><line class="cls-1" x1="0.05" y1="31.58" x2="7.87" y2="27.58"/><polygon class="cls-2" points="31.88 47.32 49.62 40.67 37.79 36.57 39.41 37.09 23.27 43.73 31.88 47.32"/><polygon class="cls-2" points="8.46 27.58 0.54 31.58 8.46 36.07 8.46 27.58"/><line class="cls-1" x1="38.68" y1="8.09" x2="38.19" y2="36.57"/><polyline class="cls-5" points="38.19 37.39 24.99 44.07 24.99 14.26 38.68 8.09"/><polyline class="cls-5" points="49.53 41.07 28.99 56.06 28.5 56.56 17.75 60.06 16.77 61.06 32.91 47.07"/><line class="cls-6" x1="32.32" y1="47.07" x2="47.48" y2="41.07"/></svg>