<?xml version="1.0" encoding="utf-8"?>
<!-- Generator: Adobe Illustrator 25.2.1, SVG Export Plug-In . SVG Version: 6.00 Build 0)  -->
<svg version="1.1" id="Layer_1" xmlns="http://www.w3.org/2000/svg" xmlns:xlink="http://www.w3.org/1999/xlink" x="0px" y="0px"
	 viewBox="0 0 6.5 5.5" style="enable-background:new 0 0 6.5 5.5;" xml:space="preserve">
<style type="text/css">
	.st0{fill:none;stroke:#231F20;stroke-width:0.2161;stroke-linejoin:bevel;stroke-miterlimit:10;}
	.st1{fill:#4FC1C0;stroke:#231F20;stroke-width:0.2161;stroke-linejoin:bevel;stroke-miterlimit:10;}
	.st2{fill:none;stroke:#231F20;stroke-width:0.108;stroke-linejoin:bevel;stroke-miterlimit:10;}
	.st3{fill:#894F9D;stroke:#231F20;stroke-width:0.108;stroke-linejoin:bevel;stroke-miterlimit:10;}
	.st4{fill:#E41D74;stroke:#231F20;stroke-width:0.2161;stroke-linejoin:bevel;stroke-miterlimit:10;}
	.st5{fill:none;stroke:#231F20;stroke-width:5.401481e-02;stroke-linejoin:bevel;stroke-miterlimit:10;}
</style>
<line class="st0" x1="4.5" y1="-8184.9" x2="4.4" y2="-8179.1"/>
<polyline class="st1" points="1.2,-8186.4 -1.7,-8185.1 -1.8,-8185.1 1.7,-8183.6 4.5,-8184.8 1.1,-8186.4 "/>
<line class="st2" x1="1.7" y1="-8177.8" x2="3.2" y2="-8177.1"/>
<line class="st0" x1="6.6" y1="-8178.2" x2="2.3" y2="-8175.1"/>
<line class="st0" x1="2.4" y1="-8175.2" x2="-0.1" y2="-8174.2"/>
<polyline class="st3" points="-1.8,-8185 -1.8,-8179.1 -1.8,-8179.2 -3.4,-8180.1 -3.4,-8180.2 -0.2,-8174.3 -0.2,-8174.1 
	3.2,-8177 1.8,-8177.7 1.7,-8183.6 "/>
<line class="st0" x1="-3.4" y1="-8180.1" x2="-1.8" y2="-8180.9"/>
<polygon class="st1" points="3.2,-8177 6.5,-8178.3 4.3,-8179.1 4.6,-8179 1.6,-8177.7 "/>
<polygon class="st1" points="-1.9,-8180.9 -3.3,-8180.1 -1.9,-8179.2 "/>
<line class="st0" x1="4.5" y1="-8184.8" x2="4.4" y2="-8179.1"/>
<polyline class="st4" points="4.4,-8179.1 1.7,-8177.8 1.7,-8183.6 4.5,-8184.8 "/>
<polyline class="st4" points="6.6,-8178.2 2.4,-8175.2 2.3,-8175.1 0.1,-8174.4 -0.1,-8174.2 3.2,-8177 "/>
<line class="st5" x1="3.2" y1="-8177" x2="6.3" y2="-8178.2"/>
</svg>
