<?xml version="1.0" encoding="UTF-8"?>
<svg xmlns="http://www.w3.org/2000/svg" xmlns:xlink="http://www.w3.org/1999/xlink" width="30pt" height="30pt" viewBox="0 0 30 30" version="1.1">
<g id="surface11584650">
<path style=" stroke:none;fill-rule:nonzero;fill:rgb(0%,48.235294%,100%);fill-opacity:1;" d="M 18.398438 8.972656 C 17.566406 8.972656 16.753906 9.136719 16.035156 9.410156 C 15.757812 9.519531 15.6875 9.632812 15.683594 9.847656 L 15.683594 21.558594 C 15.6875 21.785156 15.859375 21.960938 16.078125 21.980469 C 16.089844 21.984375 26.308594 21.980469 26.308594 21.980469 C 28.347656 21.980469 29.996094 20.347656 29.996094 18.3125 C 30 16.273438 28.347656 14.621094 26.308594 14.621094 C 25.804688 14.621094 25.320312 14.722656 24.882812 14.90625 C 24.589844 11.582031 21.800781 8.972656 18.398438 8.972656 Z M 14.929688 9.835938 C 14.832031 9.835938 14.742188 9.871094 14.675781 9.929688 C 14.582031 10.003906 14.527344 10.113281 14.523438 10.242188 L 14.523438 10.285156 L 14.355469 18.554688 L 14.441406 20.082031 L 14.523438 21.570312 C 14.527344 21.789062 14.710938 21.972656 14.929688 21.972656 C 15.148438 21.972656 15.332031 21.792969 15.339844 21.574219 L 15.339844 21.570312 L 15.519531 18.554688 L 15.339844 10.242188 C 15.332031 10.09375 15.253906 9.964844 15.136719 9.894531 C 15.074219 9.859375 15.003906 9.835938 14.929688 9.835938 Z M 13.671875 10.550781 C 13.59375 10.550781 13.523438 10.574219 13.464844 10.613281 C 13.359375 10.679688 13.292969 10.796875 13.289062 10.933594 L 13.289062 11.003906 L 13.144531 18.550781 C 13.144531 18.554688 13.289062 21.613281 13.289062 21.613281 C 13.289062 21.621094 13.289062 21.625 13.289062 21.628906 C 13.292969 21.714844 13.328125 21.792969 13.378906 21.855469 C 13.449219 21.9375 13.554688 21.992188 13.671875 21.992188 C 13.773438 21.992188 13.871094 21.949219 13.9375 21.878906 C 14.003906 21.8125 14.050781 21.714844 14.050781 21.609375 L 14.066406 21.308594 L 14.210938 18.550781 L 14.050781 10.929688 C 14.046875 10.800781 13.980469 10.683594 13.882812 10.617188 C 13.820312 10.578125 13.746094 10.550781 13.671875 10.550781 Z M 9.902344 11.425781 C 9.738281 11.425781 9.601562 11.5625 9.597656 11.730469 L 9.40625 18.550781 L 9.597656 21.679688 C 9.601562 21.851562 9.738281 21.980469 9.902344 21.980469 C 10.066406 21.980469 10.199219 21.851562 10.207031 21.679688 L 10.421875 18.550781 L 10.207031 11.730469 C 10.199219 11.558594 10.066406 11.425781 9.902344 11.425781 Z M 11.148438 11.574219 C 10.96875 11.574219 10.824219 11.71875 10.816406 11.902344 L 10.644531 18.550781 L 10.816406 21.652344 C 10.824219 21.835938 10.964844 21.980469 11.144531 21.980469 C 11.324219 21.980469 11.46875 21.832031 11.476562 21.652344 L 11.671875 18.550781 L 11.476562 11.902344 C 11.472656 11.71875 11.328125 11.574219 11.148438 11.574219 Z M 8.664062 11.675781 C 8.511719 11.675781 8.390625 11.796875 8.386719 11.949219 L 8.183594 18.550781 L 8.386719 21.699219 C 8.394531 21.855469 8.511719 21.976562 8.664062 21.976562 C 8.8125 21.976562 8.9375 21.855469 8.941406 21.703125 L 8.941406 21.699219 L 9.171875 18.550781 L 8.941406 11.949219 C 8.9375 11.796875 8.8125 11.675781 8.664062 11.675781 Z M 12.402344 11.792969 C 12.207031 11.792969 12.050781 11.949219 12.046875 12.144531 L 11.890625 18.550781 L 12.046875 21.632812 C 12.054688 21.828125 12.207031 21.984375 12.402344 21.984375 C 12.597656 21.984375 12.75 21.832031 12.757812 21.636719 L 12.757812 21.632812 L 12.933594 18.550781 L 12.757812 12.144531 C 12.753906 11.949219 12.597656 11.792969 12.402344 11.792969 Z M 7.421875 12.226562 C 7.285156 12.226562 7.171875 12.335938 7.167969 12.476562 L 6.949219 18.566406 L 7.167969 21.753906 C 7.171875 21.890625 7.285156 22 7.421875 22 C 7.554688 22 7.664062 21.890625 7.671875 21.75 L 7.921875 18.570312 L 7.671875 12.476562 C 7.664062 12.335938 7.554688 12.226562 7.421875 12.226562 Z M 6.21875 13.367188 C 6.101562 13.367188 6 13.464844 5.992188 13.589844 L 5.757812 18.546875 L 5.992188 21.75 C 6 21.875 6.101562 21.976562 6.21875 21.976562 C 6.339844 21.976562 6.441406 21.878906 6.445312 21.75 L 6.714844 18.546875 L 6.445312 13.589844 C 6.441406 13.464844 6.339844 13.367188 6.21875 13.367188 Z M 3.816406 15.089844 C 3.722656 15.089844 3.648438 15.164062 3.640625 15.265625 L 3.378906 18.546875 L 3.640625 21.722656 C 3.648438 21.824219 3.722656 21.898438 3.816406 21.898438 C 3.910156 21.898438 3.984375 21.824219 3.992188 21.722656 L 4.292969 18.546875 L 3.992188 15.265625 C 3.980469 15.164062 3.910156 15.089844 3.816406 15.089844 Z M 2.628906 15.203125 C 2.550781 15.203125 2.488281 15.265625 2.480469 15.347656 L 2.199219 18.546875 L 2.480469 21.625 C 2.484375 21.710938 2.550781 21.773438 2.628906 21.773438 C 2.707031 21.773438 2.769531 21.710938 2.777344 21.625 L 3.097656 18.546875 L 2.777344 15.347656 C 2.765625 15.265625 2.707031 15.203125 2.628906 15.203125 Z M 5.011719 15.300781 C 4.90625 15.300781 4.816406 15.386719 4.8125 15.5 L 4.5625 18.546875 L 4.8125 21.75 C 4.816406 21.863281 4.90625 21.949219 5.011719 21.949219 C 5.121094 21.949219 5.207031 21.867188 5.214844 21.75 L 5.5 18.546875 L 5.214844 15.5 C 5.207031 15.386719 5.121094 15.300781 5.011719 15.300781 Z M 1.449219 15.734375 C 1.382812 15.734375 1.332031 15.785156 1.324219 15.855469 L 1.027344 18.546875 L 1.324219 21.179688 C 1.332031 21.25 1.382812 21.300781 1.449219 21.300781 C 1.511719 21.300781 1.5625 21.253906 1.574219 21.179688 L 1.910156 18.546875 L 1.574219 15.855469 C 1.5625 15.78125 1.511719 15.734375 1.449219 15.734375 Z M 0.339844 16.765625 C 0.277344 16.765625 0.226562 16.8125 0.21875 16.878906 L 0 18.546875 L 0.21875 20.1875 C 0.226562 20.253906 0.277344 20.300781 0.339844 20.300781 C 0.402344 20.300781 0.449219 20.253906 0.457031 20.1875 L 0.71875 18.546875 L 0.457031 16.878906 C 0.449219 16.8125 0.402344 16.765625 0.339844 16.765625 Z M 0.339844 16.765625 "/>
</g>
</svg>
