<?xml version="1.0" encoding="utf-8"?>
<!-- Generator: Adobe Illustrator 25.2.1, SVG Export Plug-In . SVG Version: 6.00 Build 0)  -->
<svg version="1.1" id="Layer_1" xmlns="http://www.w3.org/2000/svg" xmlns:xlink="http://www.w3.org/1999/xlink" x="0px" y="0px"
	 viewBox="0 0 1920 1080" style="enable-background:new 0 0 1920 1080;" xml:space="preserve">
<style type="text/css">
	.st0{fill:#F8D20B;}
	.st1{opacity:0.21;}
	.st2{fill:#231F20;}
	.st3{fill:#E41D74;stroke:#231F20;stroke-width:2;stroke-linejoin:round;}
	.st4{fill:#4FC1C0;stroke:#231F20;stroke-width:2;stroke-linejoin:round;}
	.st5{fill:#884F9E;stroke:#231F20;stroke-width:2;stroke-linejoin:round;}
	.st6{fill:#E41D74;}
	.st7{fill:none;stroke:#231F20;stroke-width:2;stroke-linejoin:round;}
	.st8{clip-path:url(#SVGID_4_);}
	.st9{fill:#E41D74;stroke:#231F20;stroke-miterlimit:10;}
	.st10{fill:none;stroke:#231F20;stroke-miterlimit:10;}
	.st11{fill:#884F9E;}
	.st12{clip-path:url(#SVGID_6_);}
	.st13{fill:#E41D74;stroke:#E41D74;stroke-miterlimit:10;}
	.st14{clip-path:url(#SVGID_8_);}
	.st15{clip-path:url(#SVGID_10_);}
	.st16{stroke:#231F20;stroke-width:2;stroke-linejoin:round;}
	.st17{clip-path:url(#SVGID_12_);}
	.st18{clip-path:url(#SVGID_14_);}
</style>
<rect y="0" class="st0" width="1920" height="1080"/>
<g class="st1">
	<path class="st2" d="M1685.4,948.5l-33.3-18l-0.4,0.2l-0.3-0.2l-0.4,0.2l-0.3-0.2l-0.4,0.2l-0.3-0.2l-0.4,0.2l-0.3-0.2l-0.4,0.2
		l-0.3-0.2l-0.4,0.2l-0.3-0.2l-0.4,0.2l-0.3-0.2l-0.4,0.2l-0.3-0.2l-0.4,0.2l-0.3-0.2l-0.4,0.2l-0.3-0.2l-0.4,0.2l-0.3-0.2l-0.4,0.2
		l-0.3-0.2l-0.4,0.2l-0.3-0.2l-0.4,0.2l-0.3-0.2l-0.4,0.2l-0.3-0.2l-0.4,0.2l-0.3-0.2l-0.4,0.2l-0.3-0.2l-0.4,0.2l-0.3-0.2l-0.4,0.2
		l-0.3-0.2l-0.4,0.2l-0.3-0.2l-0.4,0.2l-0.3-0.2l-0.4,0.2l-0.3-0.2l-0.4,0.2l-0.3-0.2l-0.4,0.2l-0.3-0.2l-0.4,0.2l-0.3-0.2l-0.4,0.2
		l-0.3-0.2l-0.4,0.2l-0.3-0.2l-0.4,0.2l-0.3-0.2l-0.4,0.2l-0.3-0.2l-0.4,0.2l-0.3-0.2l-0.4,0.2l-0.3-0.2l-0.4,0.2l-0.3-0.2l-0.4,0.2
		l-0.3-0.2l-0.4,0.2l-0.3-0.2l-0.4,0.2l-0.3-0.2l-0.4,0.2l-0.3-0.2l-0.4,0.2l-0.3-0.2l-0.4,0.2l-0.3-0.2l-0.4,0.2l-0.3-0.2l-0.4,0.2
		l-0.3-0.2l-0.4,0.2l-0.3-0.2l-0.4,0.2l-0.3-0.2l-0.4,0.2l-0.3-0.2l-0.4,0.2l-0.3-0.2l-0.4,0.2l-0.3-0.2l-0.4,0.2l-0.3-0.2l-0.4,0.2
		l-0.3-0.2l-0.4,0.2l-0.3-0.2l-0.4,0.2l-0.4-0.2l-0.4,0.2l-0.3-0.2l-0.4,0.2l-0.3-0.2l-0.4,0.2l-0.3-0.2l-0.4,0.2l-0.3-0.2l-0.4,0.2
		l-0.3-0.2l-0.4,0.2l-0.3-0.2l-0.4,0.2l-0.3-0.2l-0.4,0.2l-0.3-0.2l-0.4,0.2l-0.3-0.2l-0.4,0.2l-0.3-0.2l-0.4,0.2l-0.3-0.2l-0.4,0.2
		l-0.3-0.2l-0.4,0.2l-0.3-0.2l-0.4,0.2l-0.3-0.2l-0.4,0.2l-0.3-0.2l-0.4,0.2l-0.3-0.2l-0.4,0.2l-0.3-0.2l-0.4,0.2l-0.3-0.2l-0.4,0.2
		l-0.3-0.2l-0.4,0.2l-0.3-0.2l-0.4,0.2l-0.3-0.2l-0.4,0.2l-0.3-0.2l-0.4,0.2l-0.3-0.2l-0.4,0.2l-0.3-0.2l-0.4,0.2l-0.3-0.2l-0.4,0.2
		l-0.3-0.2l-0.4,0.2l-0.3-0.2l-0.4,0.2l-0.3-0.2l-0.4,0.2l-0.3-0.2l-0.4,0.2l-0.3-0.2l-0.4,0.2l-0.3-0.2l-0.4,0.2l-0.3-0.2l-0.4,0.2
		l-0.3-0.2l-0.4,0.2l-0.3-0.2l-0.4,0.2l-0.3-0.2l-0.4,0.2l-0.3-0.2l-0.4,0.2l-0.3-0.2l-0.4,0.2l-0.3-0.2l-0.4,0.2l-0.3-0.2l-0.4,0.2
		l-0.3-0.2l-0.4,0.2l-0.3-0.2l-0.4,0.2l-0.3-0.2l-0.4,0.2l-0.3-0.2l-0.4,0.2l-0.3-0.2l-0.4,0.2l-0.3-0.2l-0.4,0.2l-0.3-0.2l-0.4,0.2
		l-0.3-0.2l-0.4,0.2l-0.3-0.2l-0.4,0.2l-0.3-0.2l-0.4,0.2l-0.3-0.2l-0.4,0.2l-0.3-0.2l-0.4,0.2l-0.3-0.2l-0.4,0.2l-0.3-0.2l-0.4,0.2
		l-0.3-0.2l-0.4,0.2l-0.3-0.2l-0.4,0.2l-0.3-0.2l-0.4,0.2l-0.3-0.2l-0.4,0.2l-0.3-0.2l-0.4,0.2l-0.3-0.2l-0.4,0.2l-0.3-0.2l-0.4,0.2
		l-0.3-0.2l-0.4,0.2l-0.3-0.2l-12.5,6.8l22.5-44.8l-37.5-20.2l-0.4,0.2l-0.3-0.2l-0.4,0.2l-0.3-0.2l-0.4,0.2l-0.3-0.2l-0.4,0.2
		l-0.3-0.2l-0.4,0.2l-0.3-0.2l-0.4,0.2l-0.3-0.2l-0.4,0.2l-0.3-0.2l-0.4,0.2l-0.3-0.2l-0.4,0.2l-0.3-0.2l-0.4,0.2l-0.3-0.2l-0.4,0.2
		l-0.3-0.2l-0.4,0.2l-0.3-0.2l-0.4,0.2l-0.3-0.2l-0.4,0.2l-0.3-0.2l-0.4,0.2l-0.3-0.2l-0.4,0.2l-0.3-0.2l-0.4,0.2l-0.3-0.2l-0.4,0.2
		l-0.3-0.2l-0.4,0.2l-0.3-0.2l-0.4,0.2l-0.3-0.2l-0.4,0.2l-0.3-0.2l-0.4,0.2l-0.3-0.2l-0.4,0.2l-0.3-0.2l-0.4,0.2l-0.3-0.2l-0.4,0.2
		l-0.3-0.2l-0.4,0.2l-0.3-0.2l-0.4,0.2l-0.3-0.2l-0.4,0.2l-0.3-0.2l-0.4,0.2l-0.3-0.2l-0.4,0.2l-0.3-0.2l-0.4,0.2l-0.3-0.2l-0.4,0.2
		l-0.3-0.2l-0.4,0.2l-0.3-0.2l-0.4,0.2l-0.3-0.2l-0.4,0.2l-0.3-0.2l-0.4,0.2l-0.3-0.2l-0.4,0.2l-0.3-0.2l-0.4,0.2l-0.3-0.2l-0.4,0.2
		l-0.3-0.2l-0.4,0.2l-0.3-0.2l-0.4,0.2l-0.3-0.2l-0.4,0.2l-0.3-0.2l-0.4,0.2l-0.3-0.2l-0.4,0.2l-0.3-0.2l-0.4,0.2l-0.3-0.2l-0.4,0.2
		l-0.3-0.2l-0.4,0.2l-0.3-0.2l-0.4,0.2l-0.3-0.2l-0.4,0.2l-0.3-0.2l-0.4,0.2l-0.3-0.2l-0.4,0.2l-0.3-0.2l-0.4,0.2l-0.3-0.2l-0.4,0.2
		l-0.3-0.2l-0.4,0.2l-0.3-0.2l-0.4,0.2l-0.3-0.2l-0.4,0.2l-0.3-0.2l-0.4,0.2l-0.3-0.2l-0.4,0.2l-0.3-0.2l-0.4,0.2l-0.3-0.2l-0.4,0.2
		l-0.3-0.2l-0.4,0.2l-0.3-0.2l-0.4,0.2l-0.3-0.2l-0.4,0.2l-0.3-0.2l-0.4,0.2l-0.3-0.2l-0.4,0.2l-0.3-0.2l-0.4,0.2l-0.3-0.2l-0.4,0.2
		l-0.3-0.2l-0.4,0.2l-0.3-0.2l-0.4,0.2l-0.3-0.2l-0.4,0.2l-0.3-0.2l-0.4,0.2l-0.3-0.2l-0.4,0.2l-0.3-0.2l-0.4,0.2l-0.3-0.2l-0.4,0.2
		l-0.3-0.2l-0.4,0.2l-0.3-0.2l-0.4,0.2l-0.3-0.2l-0.4,0.2l-0.3-0.2l-0.4,0.2l-0.3-0.2l-0.4,0.2l-0.3-0.2l-0.4,0.2l-0.3-0.2l-0.4,0.2
		l-0.3-0.2l-0.4,0.2l-0.3-0.2l-0.4,0.2l-0.3-0.2l-0.4,0.2l-0.3-0.2l-0.4,0.2l-0.3-0.2l-0.4,0.2l-0.3-0.2l-0.4,0.2l-0.3-0.2l-0.4,0.2
		l-0.3-0.2l-0.4,0.2l-0.3-0.2l-0.4,0.2l-0.3-0.2l-0.4,0.2l-0.3-0.2l-0.4,0.2l-0.3-0.2l-0.4,0.2l-0.3-0.2l-0.4,0.2l-0.3-0.2l-0.4,0.2
		l-0.3-0.2l-0.4,0.2l-0.3-0.2l-0.4,0.2l-0.3-0.2l-0.4,0.2l-0.3-0.2l-0.4,0.2l-0.3-0.2l-0.4,0.2l-0.1-0.1l36.2-19.6l-35.5-19.2
		l-0.4,0.2l-0.3-0.2l-0.4,0.2l-0.3-0.2l-0.4,0.2l-0.3-0.2l-0.4,0.2l-0.3-0.2l-0.4,0.2l-0.3-0.2l-0.4,0.2l-0.3-0.2l-0.4,0.2l-0.3-0.2
		l-0.4,0.2l-0.3-0.2l-0.4,0.2l-0.3-0.2l-0.4,0.2l-0.3-0.2l-0.4,0.2l-0.3-0.2l-0.4,0.2l-0.3-0.2l-0.4,0.2l-0.3-0.2l-0.4,0.2l-0.3-0.2
		l-0.4,0.2l-0.3-0.2l-0.4,0.2l-0.3-0.2l-0.4,0.2l-0.3-0.2l-0.4,0.2l-0.3-0.2l-0.4,0.2l-0.3-0.2l-0.4,0.2l-0.3-0.2l-0.4,0.2l-0.3-0.2
		l-0.4,0.2l-0.3-0.2l-0.4,0.2l-0.3-0.2l-0.4,0.2l-0.3-0.2l-0.4,0.2l-0.3-0.2l-0.4,0.2l-0.3-0.2l-0.4,0.2l-0.3-0.2l-0.4,0.2l-0.3-0.2
		l-0.4,0.2l-0.3-0.2l-0.4,0.2l-0.3-0.2l-0.4,0.2l-0.3-0.2l-0.4,0.2l-0.3-0.2l-0.4,0.2l-0.3-0.2l-0.4,0.2l-0.3-0.2l-0.4,0.2l-0.3-0.2
		l-0.4,0.2l-0.3-0.2l-0.4,0.2l-0.3-0.2l-0.4,0.2l-0.3-0.2l-0.4,0.2l-0.3-0.2l-0.4,0.2l-0.3-0.2l-0.4,0.2l-0.3-0.2l-0.4,0.2l-0.3-0.2
		l-0.4,0.2l-0.3-0.2l-0.4,0.2l-0.3-0.2l-0.4,0.2l-0.3-0.2l-0.4,0.2l-0.3-0.2l-0.4,0.2l-0.3-0.2l-0.4,0.2l-0.3-0.2l-0.4,0.2l-0.3-0.2
		l-0.4,0.2l-0.3-0.2l-0.4,0.2l-0.3-0.2l-0.4,0.2l-0.3-0.2l-0.4,0.2l-0.3-0.2l-0.4,0.2l-0.3-0.2l-0.4,0.2l-0.3-0.2l-0.4,0.2l-0.3-0.2
		l-0.4,0.2l-0.3-0.2l-0.4,0.2l-0.4-0.2l-0.4,0.2l-0.3-0.2l-0.4,0.2l-0.3-0.2l-0.4,0.2l-0.3-0.2l-0.4,0.2l-0.3-0.2l-0.4,0.2l-0.3-0.2
		l-0.4,0.2l-0.3-0.2l-0.4,0.2l-0.3-0.2l-0.4,0.2l-0.3-0.2l-0.4,0.2l-0.3-0.2l-0.4,0.2l-0.3-0.2l-0.4,0.2l-0.3-0.2l-0.4,0.2l-0.3-0.2
		l-0.4,0.2l-0.3-0.2l-0.4,0.2l-0.3-0.2l-0.4,0.2l-0.3-0.2l-0.4,0.2l-0.3-0.2l-0.4,0.2l-0.3-0.2l-0.4,0.2l-0.3-0.2l-0.4,0.2l-0.3-0.2
		l-0.4,0.2l-0.3-0.2l-0.4,0.2l-0.3-0.2l-0.4,0.2l-0.3-0.2l-0.4,0.2l-0.3-0.2l-0.4,0.2l-0.3-0.2l-0.4,0.2l-0.3-0.2l-0.4,0.2l-0.3-0.2
		l-0.4,0.2l-0.3-0.2l-0.4,0.2l-0.3-0.2l-0.4,0.2l-0.3-0.2l-0.4,0.2l-0.3-0.2l-0.4,0.2l-0.3-0.2l-0.4,0.2l-0.3-0.2l-0.4,0.2l-0.3-0.2
		l-0.4,0.2l-0.3-0.2l-0.4,0.2l-0.3-0.2l-0.4,0.2l-0.3-0.2l-0.4,0.2l-0.3-0.2l-0.4,0.2l-0.3-0.2l-0.4,0.2l-0.3-0.2l-0.4,0.2l-0.3-0.2
		l-0.4,0.2l-0.3-0.2l-0.4,0.2l-0.3-0.2l-0.4,0.2l-0.3-0.2l-0.4,0.2l-0.3-0.2l-0.4,0.2l-0.3-0.2l-0.4,0.2l-0.3-0.2l-0.4,0.2l-0.3-0.2
		l-0.4,0.2l-0.3-0.2l-0.4,0.2l-0.3-0.2l-0.4,0.2l-0.3-0.2l-0.4,0.2l-0.3-0.2l-0.4,0.2l-0.3-0.2l-0.4,0.2l-0.3-0.2l-24.6,13.4
		l-28.8-15.5l64.8-35.2l-35.5-19.2l-0.4,0.2l-0.3-0.2l-0.4,0.2l-0.3-0.2l-0.4,0.2l-0.3-0.2l-0.4,0.2l-0.3-0.2l-0.4,0.2l-0.3-0.2
		l-0.4,0.2l-0.3-0.2l-0.4,0.2l-0.3-0.2l-0.4,0.2l-0.3-0.2l-0.4,0.2l-0.3-0.2l-0.4,0.2l-0.3-0.2l-0.4,0.2l-0.3-0.2l-0.4,0.2l-0.3-0.2
		l-0.4,0.2l-0.3-0.2l-0.4,0.2l-0.3-0.2l-0.4,0.2l-0.3-0.2l-0.4,0.2l-0.3-0.2l-0.4,0.2l-0.3-0.2l-0.4,0.2l-0.3-0.2l-0.4,0.2l-0.3-0.2
		l-0.4,0.2l-0.3-0.2l-0.4,0.2l-0.3-0.2l-0.4,0.2l-0.3-0.2l-0.4,0.2l-0.3-0.2l-0.4,0.2l-0.3-0.2l-0.4,0.2l-0.3-0.2l-0.4,0.2l-0.3-0.2
		l-0.4,0.2l-0.3-0.2l-0.4,0.2l-0.3-0.2l-0.4,0.2l-0.3-0.2l-0.4,0.2l-0.3-0.2l-0.4,0.2l-0.3-0.2l-0.4,0.2l-0.3-0.2l-0.4,0.2l-0.3-0.2
		l-0.4,0.2l-0.3-0.2l-0.4,0.2l-0.3-0.2l-0.4,0.2l-0.3-0.2l-0.4,0.2l-0.3-0.2l-0.4,0.2l-0.3-0.2l-0.4,0.2l-0.3-0.2l-0.4,0.2l-0.3-0.2
		l-0.4,0.2l-0.3-0.2l-0.4,0.2l-0.3-0.2l-0.4,0.2l-0.3-0.2l-0.4,0.2l-0.3-0.2l-0.4,0.2l-0.3-0.2l-0.4,0.2l-0.3-0.2l-0.4,0.2l-0.3-0.2
		l-0.4,0.2l-0.3-0.2l-0.4,0.2l-0.3-0.2l-0.4,0.2l-0.3-0.2l-0.4,0.2l-0.3-0.2l-0.4,0.2l-0.3-0.2l-0.4,0.2l-0.3-0.2l-0.4,0.2l-0.3-0.2
		l-0.4,0.2l-0.3-0.2l-0.4,0.2l-0.3-0.2l-0.4,0.2l-0.3-0.2l-0.4,0.2l-0.3-0.2l-0.4,0.2l-0.3-0.2l-0.4,0.2l-0.3-0.2l-0.4,0.2l-0.3-0.2
		l-0.4,0.2l-0.3-0.2l-0.4,0.2l-0.3-0.2l-0.4,0.2l-0.3-0.2l-0.4,0.2l-0.3-0.2l-0.4,0.2l-0.3-0.2l-0.4,0.2l-0.3-0.2l-0.4,0.2l-0.3-0.2
		l-0.4,0.2l-0.3-0.2l-0.4,0.2l-0.3-0.2l-0.4,0.2l-0.3-0.2l-0.4,0.2l-0.3-0.2l-0.4,0.2l-0.3-0.2l-0.4,0.2l-0.3-0.2l-0.4,0.2l-0.3-0.2
		l-0.4,0.2l-0.3-0.2l-0.4,0.2l-0.3-0.2l-0.4,0.2l-0.3-0.2l-0.4,0.2l-0.3-0.2l-0.4,0.2l-0.3-0.2l-0.4,0.2l-0.3-0.2l-0.4,0.2l-0.3-0.2
		l-0.4,0.2l-0.3-0.2l-0.4,0.2l-0.3-0.2l-0.4,0.2l-0.3-0.2l-0.4,0.2l-0.3-0.2l-0.4,0.2l-0.3-0.2l-0.4,0.2l-0.3-0.2l-0.4,0.2l-0.3-0.2
		l-0.4,0.2l-0.3-0.2l-0.4,0.2l-0.3-0.2l-0.4,0.2l-0.3-0.2l-0.4,0.2l-0.3-0.2l-0.4,0.2l-0.3-0.2l-0.4,0.2l-0.3-0.2l-0.4,0.2l-0.3-0.2
		l-0.4,0.2l-0.3-0.2l-0.4,0.2l-0.3-0.2l-0.4,0.2l-0.3-0.2l-0.2,0.1c2-2.9,3.6-6.1,4.7-9.4c5.6-17.3-5.8-33.6-34.3-48.9
		c-21.3-11.5-45.8-17.1-73.6-17h-0.7h-1.4h-0.7l0,0h-0.7h-1.5h-0.7h-1.4h-0.7h-1.4h-0.7l0,0h-0.7h-0.7h-0.7l0,0h-0.7h-1.4h-0.7h-1.4
		h-0.7h-1.4h-0.7l0,0h-0.7h-1.4h-0.7h-1.4h-0.7h-1.4h-0.7h-1.4h-0.7l0,0h-0.7h-1.4h-0.7h-1.4h-0.7h-1.4h-0.7l0,0h-0.7h-1.4h-0.7
		h-1.4h-0.7h-1.4h-0.7h-1.4h-0.7l0,0h-0.7h-1.4h-0.7h-1.4h-0.7h-1.5h-0.7h-1.4h-0.7l0,0h-0.7h-1.4h-0.7h-1.4h-0.7h-1.4h-0.7l0,0
		h-0.7h-1.4h-0.7h-1.4h-0.7h-1.4h-0.7h-1.4h-0.7l0,0h-0.7h-1.4h-0.7h-1.4h-0.7h-1.4h-0.7h-1.9c-31.9,0.2-62.7,8.3-92.4,24.4
		c-3.3,1.8-6.5,3.6-9.5,5.5l17-61h62.6h0.7l0,0h2.8l0,0h2.1l0,0h2.1l0,0h2.1l0,0h2.8l0,0h2.1l0,0h2.1l0,0h4.9l0,0h2.1l0,0h2.1l0,0
		h2.8l0,0h2.1l0,0h2.1l0,0h2.1l0,0h2.8l0,0h2.1l0,0h2.1l0,0h4.9l0,0h2.1l0,0h1.7l0,0h2.8l0,0h2.1l0,0h2l0,0h5l0,0h2.1l0,0h2.1l0,0
		h2.7l0,0h2.1l0,0h2.1l0,0h2.1l0,0h1.4l-46.2-24.9l-136.1,2.4l70-38l-35.2-19l-0.4,0.2l-0.3-0.2l-0.4,0.2l-0.3-0.2l-0.4,0.2
		l-0.3-0.2l-0.4,0.2l-0.3-0.2l-0.4,0.2l-0.3-0.2l-0.4,0.2l-0.3-0.2l-0.4,0.2l-0.3-0.2l-0.4,0.2l-0.3-0.2l-0.4,0.2l-0.3-0.2l-0.4,0.2
		l-0.3-0.2l-0.4,0.2l-0.3-0.2l-0.4,0.2l-0.3-0.2l-0.4,0.2l-0.3-0.2l-0.4,0.2l-0.3-0.2l-0.4,0.2l-0.3-0.2l-0.4,0.2l-0.3-0.2l-0.4,0.2
		l-0.3-0.2l-0.4,0.2l-0.3-0.2l-0.4,0.2l-0.3-0.2l-0.4,0.2l-0.3-0.2l-0.4,0.2l-0.3-0.2l-0.4,0.2l-0.3-0.2l-0.4,0.2l-0.3-0.2l-0.4,0.2
		l-0.3-0.2l-0.4,0.2l-0.3-0.2l-0.4,0.2l-0.4-0.1l-0.4,0.2l-0.3-0.2l-0.4,0.2l-0.3-0.2l-0.4,0.2l-0.3-0.2l-0.4,0.2l-0.3-0.2l-0.4,0.2
		l-0.3-0.2l-0.4,0.2l-0.3-0.2l-0.4,0.2l-0.3-0.2l-0.4,0.2l-0.3-0.2l-0.4,0.2l-0.3-0.2l-0.4,0.2l-0.3-0.2l-0.4,0.2l-0.3-0.2l-0.4,0.2
		l-0.3-0.2l-0.4,0.2l-0.3-0.2l-0.4,0.2l-0.3-0.2l-0.4,0.2l-0.3-0.2l-0.4,0.2l-0.3-0.2l-0.4,0.2l-0.3-0.2l-0.4,0.2l-0.3-0.2l-0.4,0.2
		l-0.3-0.2l-0.4,0.2l-0.3-0.2l-0.4,0.2l-0.3-0.2l-0.4,0.2l-0.3-0.2l-0.4,0.2l-0.3-0.2l-0.4,0.2l-0.3-0.2l-0.4,0.2l-0.3-0.2l-0.4,0.2
		l-0.3-0.2l-0.4,0.2l-0.3-0.2l-0.4,0.2l-0.3-0.2l-0.4,0.2l-0.3-0.2l-0.4,0.2l-0.3-0.2l-0.4,0.2l-0.3-0.2l-0.4,0.2l-0.3-0.2l-0.4,0.2
		l-0.3-0.2l-0.4,0.2l-0.3-0.2l-0.4,0.2l-0.3-0.2l-0.4,0.2l-0.3-0.2l-0.4,0.2l-0.3-0.2l-0.4,0.2l-0.3-0.2l-0.4,0.2l-0.3-0.2l-0.4,0.2
		l-0.3-0.2l-0.4,0.2l-0.3-0.2l-0.4,0.2l-0.3-0.2l-0.4,0.2l-0.3-0.2l-0.4,0.2l-0.3-0.2l-0.4,0.2l-0.3-0.2l-0.4,0.2l-0.3-0.2l-0.4,0.2
		l-0.3-0.2l-0.4,0.2l-0.3-0.2l-0.4,0.2l-0.3-0.2L980,598l-0.3-0.2l-0.4,0.2l-0.3-0.2l-0.4,0.2l-0.3-0.2l-0.4,0.2l-0.3-0.2l-0.4,0.2
		l-0.3-0.2l-0.4,0.2l-0.3-0.2l-0.4,0.2l-0.3-0.2L975,598l-0.3-0.2l-0.4,0.2l-0.3-0.2l-0.4,0.2l-0.3-0.2l-0.4,0.2l-0.3-0.2l-0.4,0.2
		l-0.3-0.2l-0.4,0.2l-0.3-0.2l-0.4,0.2l-0.3-0.2l-0.4,0.2l-0.3-0.2l-0.4,0.2l-0.3-0.2l-0.4,0.2l-0.3-0.2l-0.4,0.2l-0.3-0.2l-0.4,0.2
		L967,598l-0.4,0.2l-0.3-0.2l-0.4,0.2l-0.3-0.2l-0.4,0.2l-0.3-0.2l-0.4,0.2l-0.3-0.2l-0.4,0.2l-0.3-0.2l-0.4,0.2l-0.3-0.2l-0.4,0.2
		l-0.3-0.2l-0.4,0.2l-0.3-0.2l-0.4,0.2l-0.3-0.2l-0.4,0.2l-0.3-0.2l-0.4,0.2l-0.3-0.2l-0.4,0.2l-0.3-0.2l-0.4,0.2l-0.3-0.2l-0.4,0.2
		l-0.3-0.2l-0.4,0.2l-0.3-0.2l-0.4,0.2l-0.3-0.2l-0.4,0.2l-0.3-0.2l-99.3,53.9l-72.3-39l139.4-75.6l-35.7-19.3l-0.4,0.2l-0.3-0.2
		l-0.4,0.2l-0.3-0.2l-0.4,0.2l-0.3-0.2l-0.4,0.2l-0.3-0.2l-0.4,0.2l-0.3-0.2l-0.4,0.2l-0.3-0.2l-0.4,0.2l-0.3-0.2l-0.4,0.2l-0.3-0.2
		l-0.4,0.2l-0.3-0.2l-0.4,0.2l-0.3-0.2l-0.4,0.2l-0.3-0.2l-0.4,0.2l-0.3-0.2l-0.4,0.2l-0.3-0.2l-0.4,0.2l-0.3-0.2l-0.4,0.2l-0.3-0.2
		l-0.4,0.2l-0.3-0.2l-0.4,0.2l-0.3-0.2l-0.4,0.2l-0.3-0.2l-0.4,0.2l-0.3-0.2l-0.4,0.2l-0.3-0.2l-0.4,0.2l-0.3-0.2l-0.4,0.2l-0.3-0.2
		l-0.4,0.2l-0.3-0.2l-0.4,0.2l-0.3-0.2l-0.4,0.2l-0.3-0.2l-0.4,0.2l-0.3-0.2l-0.4,0.2l-0.3-0.2l-0.4,0.2l-0.3-0.2l-0.4,0.2l-0.3-0.2
		l-0.4,0.2l-0.3-0.2l-0.4,0.2l-0.3-0.2l-0.4,0.2l-0.3-0.2l-0.4,0.2l-0.3-0.2l-0.4,0.2l-0.3-0.2l-0.4,0.2l-0.3-0.2l-0.4,0.2l-0.3-0.2
		l-0.4,0.2l-0.3-0.2l-0.4,0.2l-0.3-0.2l-0.4,0.2l-0.3-0.2l-0.4,0.2l-0.3-0.2l-0.4,0.2l-0.3-0.2L858,519l-0.3-0.2l-0.4,0.2l-0.3-0.2
		l-0.4,0.2l-0.3-0.2l-0.4,0.2l-0.3-0.2l-0.4,0.2l-0.3-0.2l-0.4,0.2l-0.3-0.2l-0.4,0.2l-0.3-0.2l-0.4,0.2l-0.3-0.2l-0.4,0.2l-0.3-0.2
		l-0.4,0.2l-0.3-0.2l-0.4,0.2l-0.3-0.2l-0.4,0.2l-0.3-0.2l-0.4,0.2l-0.3-0.2l-0.4,0.2l-0.3-0.2l-0.4,0.2l-0.3-0.2l-0.4,0.2l-0.3-0.2
		l-0.4,0.2l-0.3-0.2l-0.4,0.2l-0.3-0.2l-0.4,0.2l-0.3-0.2l-0.4,0.2l-0.3-0.2l-0.4,0.2l-0.3-0.2l-0.4,0.2L843,519l-0.4,0.2l-0.3-0.2
		l-0.4,0.2l-0.3-0.2l-0.4,0.2l-0.3-0.2l-0.4,0.2l-0.3-0.2l-0.4,0.2l-0.3-0.2l-0.4,0.2l-0.4-0.2l-0.4,0.2l-0.3-0.2l-0.4,0.2l-0.3-0.2
		l-0.4,0.2l-0.3-0.2l-0.4,0.2l-0.3-0.2l-0.4,0.2l-0.3-0.2l-0.4,0.2l-0.3-0.2l-0.4,0.2l-0.3-0.2l-0.4,0.2l-0.3-0.2l-0.4,0.2l-0.3-0.2
		l-0.4,0.2l-0.3-0.2l-0.4,0.2l-0.3-0.2l-0.4,0.2l-0.3-0.2l-0.4,0.2l-0.3-0.2l-0.4,0.2l-0.3-0.2l-0.4,0.2l-0.3-0.2l-0.4,0.2l-0.3-0.2
		l-0.4,0.2l-0.3-0.2l-0.4,0.2l-0.3-0.2l-0.4,0.2l-0.3-0.2l-0.4,0.2l-0.3-0.2l-0.4,0.2l-0.3-0.2l-0.4,0.2l-0.3-0.2l-0.4,0.2l-0.3-0.2
		l-0.4,0.2l-0.3-0.2l-0.4,0.2l-0.3-0.2l-0.4,0.2l-0.3-0.2l-0.4,0.2l-0.3-0.2l-0.4,0.2l-0.3-0.2l-0.4,0.2l-0.3-0.2l-0.4,0.2l-0.3-0.2
		l-0.4,0.2l-0.3-0.2l-0.4,0.2l-0.3-0.2l-0.4,0.2l-0.3-0.2l-0.4,0.2l-0.3-0.2l-0.4,0.2l-0.3-0.2l-0.4,0.2l-0.3-0.2l-0.4,0.2l-0.3-0.2
		l-0.4,0.2l-0.3-0.2l-0.4,0.2h-0.1c7.2-4.7,11.7-9.9,13.4-15.5c3.1-11.1-5.7-22.3-26.2-33.7L716.1,426l-0.4,0.2l-0.3-0.2l-0.4,0.2
		l-0.3-0.2l-0.4,0.2l-0.3-0.2l-0.4,0.2l-0.3-0.2l-0.4,0.2l-0.3-0.2l-0.4,0.2l-0.3-0.2l-0.4,0.2l-0.3-0.2l-0.4,0.2l-0.3-0.2l-0.4,0.2
		l-0.3-0.2l-0.4,0.2l-0.3-0.2l-0.4,0.2l-0.3-0.2l-0.4,0.2l-0.3-0.3l-0.4,0.2l-0.3-0.2l-0.4,0.2l-0.3-0.2l-0.4,0.2l-0.3-0.2l-0.4,0.2
		l-0.3-0.2l-0.4,0.2l-0.3-0.2l-0.4,0.2l-0.3-0.2l-0.4,0.2l-0.3-0.2l-0.4,0.2l-0.3-0.2l-0.4,0.2l-0.3-0.2l-0.4,0.2l-0.3-0.2l-0.4,0.2
		l-0.3-0.2l-0.4,0.2l-0.3-0.2l-0.4,0.2l-0.3-0.2l-0.4,0.2l-0.3-0.2l-0.4,0.2l-0.3-0.2l-0.4,0.2l-0.3-0.2l-0.4,0.2l-0.3-0.2l-0.4,0.2
		l-0.3-0.2l-0.4,0.2l-0.3-0.2l-0.4,0.2l-0.3-0.2l-0.4,0.2l-0.3-0.2l-0.4,0.2l-0.3-0.2l-0.4,0.2l-0.3-0.2l-0.4,0.2l-0.3-0.2l-0.4,0.2
		l-0.3-0.2l-0.4,0.2l-0.3-0.2l-0.4,0.2l-0.3-0.2l-0.4,0.2l-0.3-0.2l-0.4,0.2l-0.3-0.2l-0.4,0.2l-0.3-0.2l-0.4,0.2l-0.3-0.2l-0.4,0.2
		l-0.3-0.2l-0.4,0.2l-0.3-0.2l-0.4,0.2l-0.3-0.2l-0.4,0.2l-0.3-0.2l-0.4,0.2l-0.3-0.2l-0.4,0.2l-0.3-0.2l-0.4,0.2l-0.3-0.2l-0.4,0.2
		l-0.3-0.2l-0.4,0.2l-0.3-0.2l-0.4,0.2l-0.3-0.2l-0.4,0.2l-0.3-0.2l-0.4,0.2l-0.3-0.2l-0.4,0.2l-0.3-0.2l-0.4,0.2l-0.3-0.2l-0.4,0.2
		l-0.3-0.2l-0.4,0.2l-0.3-0.2l-0.4,0.2l-0.3-0.2l-0.4,0.2l-0.3-0.2L673,427l-0.3-0.2l-0.4,0.2l-0.3-0.2l-0.4,0.2l-0.3-0.2l-0.4,0.2
		l-0.3-0.2l-0.4,0.2l-0.3-0.2l-0.4,0.2l-0.3-0.2l-0.4,0.2l-0.3-0.2l-0.4,0.2l-0.3-0.2l-0.4,0.2l-0.3-0.2l-0.4,0.2l-0.3-0.2l-0.4,0.2
		l-0.3-0.2l-0.4,0.2l-0.3-0.2l-0.4,0.2l-0.3-0.2l-0.4,0.2l-0.3-0.2l-0.4,0.2l-0.3-0.2l-0.4,0.2l-0.3-0.2l-0.4,0.2l-0.3-0.2l-0.4,0.2
		l-0.3-0.2l-0.4,0.2L660,427l-0.4,0.2l-0.3-0.2l-0.4,0.2l-0.3-0.2l-0.4,0.2l-0.3-0.2l-0.4,0.2l-0.3-0.2l-0.4,0.2l-0.3-0.2l-0.4,0.2
		l-0.4-0.2l-0.4,0.2l-0.3-0.2l-0.4,0.2l-0.3-0.2l-0.4,0.2l-0.3-0.2l-0.4,0.2l-0.3-0.2l-0.4,0.2l-0.3-0.2l-0.4,0.2l-0.3-0.2l-0.4,0.2
		l-0.3-0.2l-0.4,0.2l-0.3-0.2l-0.4,0.2l-0.3-0.2l-0.4,0.2l-0.3-0.2l-0.4,0.2l-0.3-0.2l-0.4,0.2l-0.3-0.2l-0.4,0.2l-0.3-0.2l-0.4,0.2
		l-0.3-0.2l-0.4,0.2l-0.3-0.2l-0.4,0.2l-0.3-0.2l-0.4,0.2l-0.3-0.2l-0.4,0.2l-0.3-0.2l-0.4,0.2l-0.3-0.2l-0.4,0.2l-0.3-0.2l-0.4,0.2
		l-0.3-0.2l-0.4,0.2l-0.3-0.2l-0.4,0.2l-0.3-0.2l-0.4,0.2l-0.3-0.2l-0.4,0.2l-0.3-0.2l-1.2,0.7c7.8-8.1,10.8-17,9.2-26.8
		c-2.2-13.1-14.2-25.5-35.9-37.2c-25.1-13.5-53.5-19.9-85.4-19.1h-77.9c-8.2,0.2-16.5,0.9-24.6,2.1l74.9-40.6l-33.3-18l-0.4,0.2
		l-0.3-0.2l-0.4,0.2l-0.3-0.2l-0.4,0.2l-0.3-0.2l-0.4,0.2l-0.3-0.2l-0.4,0.2l-0.3-0.2l-0.4,0.2l-0.3-0.2l-0.4,0.2l-0.3-0.2l-0.4,0.2
		l-0.3-0.2l-0.4,0.2l-0.3-0.2l-0.4,0.2l-0.3-0.2l-0.4,0.2l-0.3-0.2l-0.4,0.2l-0.3-0.2l-0.4,0.2l-0.3-0.2l-0.4,0.2l-0.3-0.2l-0.4,0.2
		l-0.3-0.2l-0.4,0.2l-0.3-0.2l-0.4,0.2l-0.3-0.2l-0.4,0.2l-0.3-0.2l-0.4,0.2l-0.3-0.2l-0.4,0.2l-0.3-0.2l-0.4,0.2l-0.3-0.2l-0.4,0.2
		l-0.3-0.2l-0.4,0.2l-0.3-0.2l-0.4,0.2l-0.3-0.2l-0.4,0.2l-0.3-0.2l-0.4,0.2l-0.3-0.2l-0.4,0.2l-0.3-0.2l-0.4,0.2l-0.3-0.2l-0.4,0.2
		l-0.3-0.2l-0.4,0.2l-0.3-0.2l-0.4,0.2l-0.3-0.2l-0.4,0.2l-0.3-0.2l-0.4,0.2l-0.3-0.2l-0.4,0.2l-0.3-0.2l-0.4,0.2l-0.3-0.2l-0.4,0.2
		l-0.3-0.2l-0.4,0.2l-0.3-0.2l-0.4,0.2l-0.3-0.2l-0.4,0.2l-0.3-0.2l-0.4,0.2l-0.3-0.2l-0.4,0.2L435,289l-0.4,0.2l-0.3-0.2l-0.4,0.2
		l-0.3-0.2l-0.4,0.2l-0.3-0.2l-0.4,0.2l-0.3-0.2l-0.4,0.2l-0.3-0.2l-0.4,0.2l-0.3-0.2l-0.4,0.2l-0.3-0.2l-0.4,0.2l-0.3-0.2l-0.4,0.2
		l-0.3-0.2l-0.4,0.2l-0.3-0.2l-0.4,0.2l-0.3-0.2l-0.4,0.2l-0.3-0.2l-0.4,0.2l-0.3-0.2l-0.4,0.2l-0.3-0.2l-0.4,0.2l-0.3-0.2l-0.4,0.2
		l-0.3-0.2l-0.4,0.2l-0.3-0.2l-0.4,0.2l-0.3-0.2l-0.4,0.2l-0.3-0.2l-0.4,0.2l-0.3-0.2l-0.4,0.2l-0.3-0.2l-0.4,0.2l-0.3-0.2l-0.4,0.2
		l-0.3-0.2l-0.4,0.2l-0.3-0.2l-0.4,0.2l-0.3-0.2l-0.4,0.2l-0.3-0.2l-0.4,0.2l-0.3-0.2l-0.3,1.7l-0.3-0.2l-0.4,0.2l-0.3-0.2l-0.4,0.2
		L414,291l-0.4,0.2l-0.3-0.2l-0.4,0.2l-0.3-0.2l-0.4,0.2l-0.3-0.2l-0.4,0.2l-0.3-0.2l-0.4,0.2l-0.3-0.2l-0.4,0.2l-0.3-0.2l-0.4,0.2
		l-0.3-0.2l-0.4,0.2l-0.3-0.2l-0.4,0.2l-0.3-0.2l-0.4,0.2l-0.3-0.2l-0.4,0.2l-0.3-0.2l-0.4,0.2l-0.3-0.2l-0.4,0.2l-0.3-0.2l-0.4,0.2
		l-0.3-0.2l-0.4,0.2l-0.3-0.2l-0.4,0.2l-0.4-0.2l-0.4,0.2l-0.3-0.2l-0.4,0.2l-0.3-0.2l-0.4,0.2l-0.3-0.2l-0.4,0.2l-0.3-0.2l-0.4,0.2
		l-0.3-0.2l-0.4,0.2l-0.4-0.2l-0.4,0.2l-0.3-0.2l-0.4,0.2l-0.3-0.2l-0.4,0.2l-0.3-0.2l-0.4,0.2l-0.3-0.2l-0.4,0.2l-0.3-0.2l-0.4,0.2
		l-0.3-0.2l-0.4,0.2l-0.3-0.2l-0.4,0.2l-0.3-0.2l-0.4,0.2l-0.3-0.2l-0.4,0.2l-0.3-0.2l-0.4,0.2l-0.3-0.2l-0.4,0.2l-0.3-0.2l-0.4,0.2
		l-0.3-0.2l-0.4,0.2l-0.3-0.2l-0.4,0.2l-0.3-0.2l-0.4,0.2l-0.3-0.2l-0.4,0.2l-0.3-0.2l-0.4,0.2l-0.3-0.2l-12.5,6.8l22.5-44.8
		l-37.5-20.2l-0.4,0.2l-0.3-0.2l-0.4,0.2l-0.3-0.2l-0.4,0.2l-0.3-0.2l-0.4,0.2l-0.3-0.2l-0.4,0.2l-0.3-0.2l-0.4,0.2l-0.3-0.2
		l-0.4,0.2l-0.3-0.2l-0.4,0.2l-0.3-0.2l-0.4,0.2l-0.3-0.2l-0.4,0.2l-0.3-0.2l-0.4,0.2l-0.3-0.2l-0.4,0.2l-0.3-0.2l-0.4,0.2l-0.3-0.2
		l-0.4,0.2l-0.3-0.2l-0.4,0.2l-0.3-0.2l-0.4,0.2l-0.3-0.2l-0.4,0.2l-0.3-0.2l-0.4,0.2l-0.3-0.2l-0.4,0.2l-0.3-0.2l-0.4,0.2l-0.3-0.2
		l-0.4,0.2l-0.3-0.2l-0.4,0.2l-0.3-0.2l-0.4,0.2l-0.3-0.2l-0.4,0.2l-0.3-0.2l-0.4,0.2l-0.3-0.2l-0.4,0.2l-0.3-0.2l-0.4,0.2l-0.3-0.2
		l-0.4,0.2l-0.3-0.2l-0.4,0.2l-0.3-0.2l-0.4,0.2l-0.3-0.2l-0.4,0.2l-0.3-0.2l-0.4,0.2l-0.3-0.2l-0.4,0.2l-0.3-0.2l-0.4,0.2l-0.3-0.2
		l-0.4,0.2l-0.3-0.2l-0.4,0.2l-0.3-0.2l-0.4,0.2l-0.3-0.2l-0.4,0.2l-0.3-0.2l-0.4,0.2l-0.3-0.2l-0.4,0.2l-0.3-0.2l-0.4,0.2l-0.3-0.2
		l-0.4,0.2l-0.3-0.2l-0.4,0.2l-0.3-0.2l-0.4,0.2l-0.3-0.2l-0.4,0.2l-0.3-0.2l-0.4,0.2l-0.3-0.2l-0.4,0.2l-0.3-0.2L325,234l-0.3-0.2
		l-0.4,0.2l-0.3-0.2l-0.4,0.2l-0.3-0.2l-0.4,0.2l-0.3-0.2l-0.4,0.2l-0.3-0.2l-0.4,0.2l-0.3-0.2l-0.4,0.2l-0.3-0.2l-0.4,0.2l-0.3-0.2
		l-0.4,0.2l-0.3-0.2l-0.4,0.2l-0.3-0.2l-0.4,0.2l-0.3-0.2l-0.4,0.2l-0.3-0.2l-0.4,0.2l-0.3-0.2l-0.4,0.2l-0.3-0.2l-0.4,0.2l-0.3-0.2
		l-0.4,0.2l-0.3-0.2l-0.4,0.2l-0.3-0.2l-0.4,0.2l-0.3-0.2l-0.4,0.2l-0.3-0.2l-0.4,0.2l-0.3-0.2l-0.4,0.2l-0.3-0.1l-0.4,0.2l-0.3-0.2
		l-0.4,0.2l-0.3-0.2l-0.4,0.2l-0.3-0.2l-0.4,0.2l-0.3-0.2l-0.4,0.2l-0.3-0.2l-0.4,0.2l-0.3-0.2l-0.4,0.2l-0.3-0.2l-0.4,0.2l-0.3-0.2
		l-0.4,0.2l-0.3-0.2l-0.4,0.2l-0.3-0.2l-0.4,0.2l-0.3-0.2l-0.4,0.2l-0.3-0.2l-0.4,0.2l-0.3-0.2l-0.4,0.2l-0.3-0.2l-0.4,0.2l-0.3-0.2
		l-0.4,0.2l-0.3-0.2l-0.4,0.2l-0.3-0.2l-0.4,0.2l-0.3-0.2l-0.4,0.2l-0.3-0.2l-0.4,0.2l-0.3-0.2l-0.4,0.2l-0.3-0.2l-0.4,0.2l-0.3-0.2
		l-0.4,0.2l-0.3-0.2l-0.4,0.2l-0.3-0.2l-0.4,0.2l-0.3-0.2l-0.4,0.2l-0.3-0.2l-0.4,0.2l-0.3-0.2l-0.4,0.2l-0.3-0.2l-0.4,0.2l-0.3-0.2
		l-0.4,0.2l-0.3-0.2l-0.4,0.2l-0.3-0.2l-0.4,0.2l-0.3-0.2l-0.4,0.2l-0.3-0.2l-0.4,0.2l-0.3-0.2l-0.4,0.2l-0.3-0.2l-0.4,0.2l-0.3-0.2
		l-0.4,0.2l-0.3-0.2l-0.4,0.2l-0.3-0.2l-0.4,0.2l-0.3-0.2l-0.4,0.2l-0.3-0.2l-0.4,0.2l-0.3-0.2l-0.4,0.2l-0.3-0.2l-0.4,0.2l-0.3-0.2
		l-170,92.2l33.3,18l0.4-0.2l0.3,0.2l0.4-0.2l0.3,0.2l0.4-0.2l0.3,0.2l0.4-0.2l0.3,0.2l0.4-0.2l0.3,0.2l0.4-0.2l0.3,0.2l0.4-0.2
		l0.3,0.2l0.4-0.2l0.3,0.2l0.4-0.2l0.3,0.2l0.4-0.2l0.3,0.2l0.4-0.2l0.3,0.2l0.4-0.2l0.3,0.2l0.4-0.2l0.3,0.2l0.4-0.2l0.3,0.2
		l0.4-0.2l0.3,0.2l0.4-0.2l0.3,0.2l0.4-0.2l0.3,0.2l0.4-0.2l0.3,0.2l0.4-0.2l0.3,0.2l0.4-0.2l0.3,0.2l0.4-0.2l0.3,0.2l0.4-0.2
		l0.3,0.2l0.4-0.2l0.3,0.2l0.4-0.2l0.3,0.2l0.4-0.2l0.3,0.2l0.4-0.2l0.3,0.2l0.4-0.2l0.3,0.2l0.4-0.2l0.3,0.2l0.4-0.2l0.3,0.2
		l0.4-0.2l0.3,0.2l0.4-0.2l0.3,0.2l0.4-0.2l0.3,0.2l0.4-0.2l0.3,0.2l0.4-0.2l0.3,0.2l0.4-0.2l0.3,0.2l0.4-0.2l0.3,0.2l0.4-0.2
		l0.3,0.2l0.4-0.2l0.3,0.2l0.4-0.2l0.3,0.2l0.4-0.2l0.3,0.2l0.4-0.2l0.3,0.2l0.4-0.2l0.3,0.2l0.4-0.2l0.3,0.2l0.4-0.2l0.3,0.2
		l0.4-0.2l0.3,0.2l0.4-0.2l0.3,0.2l0.4-0.2l0.3,0.2l0.4-0.2l0.3,0.2l0.4-0.2l0.3,0.2l0.4-0.2l0.3,0.2l0.4-0.2l0.3,0.2l0.4-0.2
		l0.3,0.2l0.4-0.2l0.3,0.2l0.4-0.2l0.3,0.2l0.4-0.2l0.3,0.2l0.4-0.2l0.3,0.2l0.4-0.2l0.3,0.2l0.4-0.2l0.3,0.2l0.4-0.2l0.3,0.2
		l0.4-0.2l0.3,0.2l0.4-0.2l0.3,0.2l0.4-0.2l0.3,0.2l0.4-0.2l0.3,0.2l0.4-0.2l0.3,0.2l0.4-0.2l0.3,0.2l0.4-0.2l0.3,0.2l0.4-0.2
		l0.3,0.2l0.4-0.2l0.3,0.2l0.4-0.2l0.3,0.2l0.4-0.2l0.3,0.2l0.4-0.2l0.3,0.2l0.4-0.2l0.3,0.2l0.4-0.2l0.3,0.2l0.4-0.2l0.3,0.2
		l0.4-0.2l0.3,0.2l0.4-0.2l0.3,0.2l0.4-0.2l0.3,0.2l0.4-0.2l0.3,0.2l0.4-0.2l0.3,0.2l0.4-0.2l0.3,0.2l0.4-0.2l0.3,0.2l0.4-0.2
		l0.3,0.2l0.4-0.2l0.3,0.2l0.4-0.2l0.3,0.2l0.4-0.2l0.3,0.2l0.4-0.2l0.3,0.2l0.4-0.2l0.3,0.2l0.4-0.2l0.3,0.2l0.4-0.2l0.3,0.2
		l0.4-0.2l0.3,0.2l0.4-0.2l0.3,0.2l0.4-0.2l0.3,0.2l0.4-0.2l0.3,0.2l0.4-0.2l0.3,0.2l0.4-0.2l0.3,0.2l0.4-0.2l0.3,0.2l0.4-0.2
		l0.3,0.2l0.4-0.2l0.3,0.2l0.4-0.2l0.3,0.2l0.4-0.2l0.3,0.2l0.4-0.2l0.3,0.2l0.4-0.2l0.3,0.2l0.4-0.2l0.3,0.2l0.4-0.2l0.3,0.2
		l0.4-0.2l0.3,0.2l0.4-0.2l0.3,0.2l0.4-0.2l0.3,0.2l0.4-0.2l0.3,0.2l0.4-0.2l0.3,0.2l0.4-0.2l0.3,0.2l0.4-0.2l0.3,0.2l15.1-8.2
		l-23.3,47.2l35.7,19.3l0.4-0.2l0.3,0.2l0.4-0.2l0.3,0.2l0.4-0.2l0.3,0.2l0.4-0.2l0.3,0.2l0.4-0.2l0.3,0.2l0.4-0.2l0.3,0.2l0.4-0.2
		l0.3,0.2l0.4-0.2l0.3,0.2l0.4-0.2l0.3,0.2l0.4-0.2l0.3,0.2l0.4-0.2l0.3,0.2l0.4-0.2l0.3,0.2l0.4-0.2l0.3,0.2l0.4-0.2l0.3,0.2
		l0.4-0.2l0.3,0.2l0.4-0.2l0.3,0.2l0.4-0.2l0.3,0.2l0.4-0.2l0.3,0.2l0.4-0.2l0.3,0.2l0.4-0.2l0.3,0.2l0.4-0.2l0.3,0.2l0.4-0.2
		l0.3,0.2l0.4-0.2l0.3,0.2l0.3-0.3l0.3,0.2l0.4-0.2l0.3,0.2l0.4-0.2l0.3,0.2l0.4-0.2l0.3,0.2l0.4-0.2l0.3,0.2l0.4-0.2l0.3,0.2
		l0.4-0.2l0.3,0.2l0.4-0.2l0.3,0.2l0.4-0.2l0.3,0.2l0.4-0.2l0.3,0.2l0.4-0.2l0.3,0.2l0.4-0.2l0.3,0.2l0.4-0.2l0.3,0.2l0.4-0.2
		l0.3,0.2l0.4-0.2l0.3,0.2l0.4-0.2l0.3,0.2l0.4-0.2l0.3,0.2l0.4-0.2l0.3,0.2l0.4-0.2l0.3,0.2l0.4-0.2l0.3,0.2l0.4-0.2l0.3,0.2
		l0.4-0.2l0.3,0.2l0.4-0.2l0.3,0.2l0.4-0.2l0.3,0.2l0.4-0.2l0.3,0.2l0.4-0.2l0.3,0.2l0.4-0.2l0.3,0.2l0.4-0.2l0.3,0.2l0.4-0.2
		l0.3,0.2l0.4-0.2l0.3,0.2l0.4-0.2l0.3,0.2l0.4-0.2l0.3,0.2l0.4-0.2l0.3,0.2l0.4-0.2l0.3,0.2l0.4-0.2l0.3,0.2l0.4-0.2l0.3,0.2
		l0.4-0.2l0.3,0.2l0.4-0.2l0.3,0.2l0.4-0.2l0.3,0.2l0.4-0.2l0.3,0.2l0.4-0.2l0.3,0.2l0.4-0.2l0.3,0.2l0.4-0.2l0.3,0.2l0.4-0.2
		l0.3,0.2l0.4-0.2l0.3,0.2l0.4-0.2l0.3,0.2l0.4-0.2l0.3,0.2l0.4-0.2l0.3,0.2l0.4-0.2l0.3,0.2l0.4-0.2l0.3,0.2l0.4-0.2l0.3,0.2
		l0.4-0.2l0.3,0.2l0.4-0.2l0.3,0.2l0.4-0.2l0.3,0.2l0.4-0.2l0.3,0.2l0.4-0.2l0.3,0.2l0.4-0.2l0.3,0.2l0.4-0.2l0.3,0.2l0.4-0.2
		l0.3,0.2l0.4-0.2l0.3,0.2l0.4-0.2l0.3,0.2l0.4-0.2l0.3,0.2l0.4-0.2l0.3,0.2l0.4-0.2l0.3,0.2l0.4-0.2l0.3,0.2l0.4-0.2l0.3,0.2
		l0.4-0.2l0.3,0.2l0.4-0.2l0.3,0.2l0.4-0.2l0.3,0.2l0.4-0.2l0.3,0.2l0.4-0.2l0.3,0.2l0.4-0.2l0.3,0.2l0.4-0.2l0.3,0.2l0.4-0.2
		l0.3,0.2l0.4-0.2l0.3,0.2l0.4-0.2l0.3,0.2l0.4-0.2l0.3,0.2l0.4-0.2l0.3,0.2l0.4-0.2l0.3,0.2l0.4-0.2l0.3,0.2l0,0
		c-3.2,5.1-5.1,10.9-5.3,16.9c-1.1,16.3,9.6,30.5,32.3,42.7c13.5,7.3,28.2,12.1,43.5,14.1c8.7,1,17.5,1.4,26.2,1.1h1.4h0.7h1.4h0.7
		h2.1h0.7h1.4h0.7h0.1l-17.5,13.3l23.7,12.8l0.4-0.2l0.3,0.2l0.4-0.2l0.3,0.2l0.4-0.2l0.3,0.2l0.4-0.2l0.3,0.2l0.4-0.2l0.3,0.2
		l0.4-0.2l0.3,0.2l0.4-0.2l0.3,0.2l0.4-0.2l0.3,0.2l0.4-0.2l0.3,0.2l0.4-0.2l0.3,0.2l0.4-0.2l0.3,0.2l0.4-0.2l0.3,0.2l0.4-0.2
		l0.3,0.2l0.4-0.2l0.3,0.2l0.4-0.2l0.3,0.2l0.4-0.2l0.3,0.2l0.4-0.2l0.3,0.2l0.4-0.2l0.3,0.2l0.4-0.2l0.3,0.2l0.4-0.2l0.3,0.2
		l0.4-0.2l0.3,0.2l0.4-0.2l0.3,0.2l0.4-0.2l0.3,0.2l0.4-0.2l0.3,0.2l0.4-0.2l0.3,0.2l0.4-0.2l0.3,0.2l0.4-0.2l0.3,0.2l0.4-0.2
		l0.3,0.2l0.4-0.2l0.3,0.2l0.4-0.2l0.3,0.2l0.4-0.2l0.3,0.2l0.4-0.2l0.3,0.2l0.4-0.2l0.3,0.2l0.4-0.2l0.3,0.2l0.4-0.2l0.3,0.2
		l0.4-0.2l0.3,0.2l0.4-0.2l0.3,0.2l0.4-0.2l0.3,0.2l0.4-0.2l0.3,0.2l0.4-0.2l0.3,0.2l0.4-0.2l0.3,0.2l0.4-0.2l0.3,0.2l0.4-0.2
		l0.3,0.2l0.4-0.2l0.3,0.2l0.4-0.2l0.3,0.2l0.4-0.2l0.3,0.2l0.4-0.2l0.3,0.2l0.4-0.2l0.3,0.2l0.4-0.2l0.3,0.2l0.4-0.2l0.3,0.2
		l0.4-0.2l0.3,0.2l0.4-0.2l0.3,0.2l0.4-0.2l0.3,0.2l0.4-0.2l0.3,0.2l0.4-0.2l0.3,0.2l0.4-0.2l0.3,0.2l0.4-0.2l0.3,0.2l0.4-0.2
		l0.3,0.2l0.4-0.2l0.3,0.2l0.4-0.2l0.3,0.2l0.4-0.2l0.3,0.2l0.4-0.2l0.3,0.2l0.4-0.2l0.3,0.2l0.4-0.2l0.3,0.2l0.4-0.2l0.3,0.2
		l0.4-0.2l0.3,0.2l0.4-0.2l0.3,0.2l0.4-0.2l0.3,0.2l0.4-0.2l0.3,0.2l0.4-0.2l0.3,0.2l0.4-0.2l0.3,0.2l0.4-0.2l0.3,0.2l0.4-0.2
		l0.3,0.2l0.4-0.2l0.3,0.2l0.4-0.2l0.3,0.2l0.4-0.2l0.3,0.2l0.4-0.2l0.3,0.2l0.4-0.2l0.3,0.2l0.4-0.2l0.3,0.2l0.4-0.2l0.3,0.2
		l0.4-0.2l0.3,0.2l0.4-0.2l0.3,0.2l0.4-0.2l0.3,0.2l0.4-0.2l0.3,0.2l0.4-0.2l0.3,0.2l0.4-0.2l0.3,0.2l0.4-0.2l0.3,0.2l0.4-0.2
		l0.3,0.2l0.4-0.2l0.3,0.2l0.4-0.2l0.3,0.2l0.4-0.2l0.3,0.2l0.4-0.2l0.3,0.2l0.4-0.2l0.3,0.2l0.4-0.2l0.3,0.2l0.4-0.2l0.3,0.2
		l0.4-0.2l0.3,0.2l0.4-0.2l0.3,0.2l0.4-0.2l0.3,0.2l0.4-0.2l0.3,0.2l0.4-0.2l0.3,0.2l0.4-0.2l0.3,0.2l0.4-0.2l0.3,0.2l0.4-0.2l0,0
		l-37.3,20.2l77.1,41.5c8.5,4.6,17.4,8.5,26.5,11.8c9,3.2,18.4,5.1,27.9,5.8c4.4,0.3,8.8,0.4,13.2,0.3h1.8h0.7h1.4h0.7h1.4h0.7h2.1
		h0.7h1.4h0.7h1.4h0.7h2.1h0.7h1.4h0.7h1.4h0.7h1.4h0.7h2.1h0.7h1.4h0.7h1.4h0.7h2.1h0.7h1.4h0.7h1.4h0.7h1.4h0.7h2.1h0.7h1.4h0.7
		h1.4h0.7h1.4h0.7h2.1h0.7h1.4h0.7h1.4h0.7h2.1h0.7h1.4h0.7h1.4h0.7h1.4h0.7h2.1h0.7h1.4h0.7h1.4h0.7h1.4h0.7h2.7
		c4.7-0.1,9.4-0.4,14-1c0.6-0.1,1.1-0.2,1.7-0.2l-65.5,35.5l121.2,65.3l0.4-0.2l0.3,0.2l0.4-0.2l0.3,0.2l0.4-0.2l0.3,0.2l0.4-0.2
		l0.3,0.2l0.4-0.2l0.3,0.2l0.4-0.2l0.3,0.2l0.4-0.2l0.3,0.2l0.4-0.2l0.3,0.2l0.4-0.2l0.3,0.2l0.4-0.2l0.3,0.2l0.4-0.2l0.3,0.2
		l0.4-0.2l0.3,0.2l0.4-0.2l0.3,0.2l0.4-0.2l0.3,0.2l0.4-0.2l0.3,0.2l0.4-0.2l0.3,0.2l0.4-0.2l0.3,0.2l0.4-0.2l0.3,0.2l0.4-0.2
		l0.3,0.2l0.4-0.2l0.3,0.2l0.4-0.2l0.3,0.2l0.4-0.2l0.3,0.2l0.4-0.2l0.3,0.2l0.4-0.2l0.3,0.2l0.4-0.2l0.3,0.2l0.4-0.2l0.3,0.2
		l0.4-0.2l0.3,0.2l0.4-0.2l0.3,0.2l0.4-0.2l0.3,0.2l0.4-0.2l0.3,0.2l0.4-0.2l0.3,0.2l0.4-0.2l0.3,0.2l0.4-0.2l0.3,0.2l0.4-0.2
		l0.3,0.2l0.4-0.2l0.3,0.2l0.4-0.2l0.3,0.2l0.4-0.2l0.3,0.2l0.4-0.2l0.3,0.2l0.4-0.2l0.3,0.2l0.4-0.2l0.3,0.2l0.4-0.2l0.3,0.2
		l0.4-0.2l0.3,0.2l0.4-0.2l0.3,0.2l0.4-0.2l0.3,0.2l0.4-0.2l0.3,0.2l0.4-0.2l0.3,0.2l0.4-0.2l0.3,0.2l0.4-0.2l0.3,0.2l0.4-0.2
		l0.3,0.2l0.4-0.2l0.3,0.2l0.4-0.2l0.3,0.2l0.4-0.2l0.3,0.2l0.4-0.2l0.3,0.2l0.4-0.2l0.3,0.2l0.4-0.2l0.3,0.2l0.4-0.2l0.3,0.2
		l0.4-0.2l0.3,0.2l0.4-0.2l0.3,0.2l0.4-0.2l0.3,0.2l0.4-0.2l0.3,0.2l0.4-0.2l0.3,0.2l0.4-0.2l0.3,0.2l0.4-0.2l0.3,0.2l0.4-0.2
		l0.3,0.2l0.4-0.2l0.3,0.2l0.4-0.2l0.3,0.2l0.4-0.2l0.3,0.2l0.4-0.2l0.3,0.2l0.4-0.2l0.3,0.2l0.4-0.2l0.3,0.2l0.4-0.2l0.3,0.2
		l0.4-0.2l0.3,0.2l0.4-0.2l0.1,0.1L785,692.1l35.2,19l0.4-0.2l0.3,0.2l0.4-0.2l0.3,0.2l0.4-0.2l0.3,0.2l0.4-0.2l0.3,0.2l0.4-0.2
		l0.3,0.2l0.4-0.2l0.3,0.2l0.4-0.2l0.3,0.2l0.4-0.2l0.3,0.2l0.4-0.2l0.3,0.2l0.4-0.2l0.3,0.2l0.4-0.2l0.3,0.2l0.4-0.2l0.3,0.2
		l0.4-0.2l0.3,0.2l0.4-0.2l0.3,0.2l0.4-0.2l0.3,0.2l0.4-0.2l0.3,0.2l0.4-0.2l0.3,0.2l0.4-0.2l0.3,0.2l0.4-0.2l0.3,0.2l0.4-0.2
		l0.3,0.2l0.4-0.2l0.3,0.2l0.4-0.2l0.3,0.2l0.4-0.2l0.3,0.2l0.4-0.2l0.3,0.2l0.4-0.2l0.3,0.2l0.4-0.2l0.3,0.2l0.4-0.2l0.3,0.2
		l0.4-0.2l0.3,0.2l0.4-0.2l0.3,0.2l0.4-0.2l0.3,0.2l0.4-0.2l0.3,0.2l0.4-0.2l0.3,0.2l0.4-0.2l0.3,0.2l0.4-0.2l0.3,0.2l0.4-0.2
		l0.3,0.2l0.4-0.2l0.3,0.2l0.4-0.2l0.3,0.2l0.4-0.2l0.3,0.2l0.4-0.2l0.3,0.2l0.4-0.2l0.3,0.2l0.4-0.2l0.3,0.2l0.4-0.2l0.3,0.2
		l0.4-0.2l0.3,0.2l0.4-0.2l0.3,0.2l0.4-0.2l0.3,0.2l0.4-0.2l0.3,0.2l0.4-0.2l0.3,0.2l0.4-0.2l0.3,0.2l0.4-0.2l0.3,0.2l0.4-0.2
		l0.3,0.2l0.4-0.2l0.3,0.2l0.4-0.2l0.3,0.2l0.4-0.2l0.3,0.2l0.4-0.2l0.3,0.2l0.4-0.2l0.3,0.2l0.4-0.2l0.3,0.2l0.4-0.2l0.3,0.2
		l0.4-0.2l0.3,0.2l0.4-0.2l0.3,0.2l0.4-0.2l0.3,0.2l0.4-0.2l0.3,0.2l0.4-0.2l0.3,0.2l0.4-0.2l0.3,0.2l0.4-0.2l0.3,0.2l0.4-0.2
		l0.3,0.2l0.4-0.2l0.3,0.2l0.4-0.2l0.3,0.2l0.4-0.2l0.3,0.2l0.4-0.2l0.3,0.2l0.4-0.2l0.3,0.2l0.4-0.2l0.3,0.2l0.4-0.2l0.3,0.2
		l0.4-0.2l0.3,0.2l0.4-0.2l0.3,0.2l0.4-0.2l0.3,0.2l0.4-0.2l0.3,0.2l0.4-0.2l0.3,0.2l0.4-0.2l0.3,0.2l0.4-0.2l0.3,0.2l0.4-0.2
		l0.3,0.2l0.4-1.9l0.3,0.2l0.4-0.2l0.3,0.2l0.4-0.2l0.3,0.2l0.4-0.2l0.3,0.2l0.4-0.2l0.3,0.2l0.4-0.2l0.3,0.2l0.4-0.2l0.3,0.2
		l0.4-0.2l0.3,0.2l0.4-0.2l0.3,0.2l0.4-0.2l0.3,0.2l0.4-0.2l0.3,0.2l0.4-0.2l0.3,0.2l0.4-0.2l0.3,0.2l0.4-0.2l0.3,0.2l0.4-0.2
		l0.3,0.2l0.4-0.2l0.3,0.2l0.4-0.2l0.3,0.2l0.4-0.2l0.3,0.2l0.4-0.2l0.3,0.2l0.4-0.2l0.3,0.2l0.4-0.2l0.3,0.2l0.4-0.2l0.3,0.2
		l0.4-0.2l0.3,0.2l0.4-0.2l0.3,0.2l0.4-0.2l0.3,0.2l0.4-0.2l0.3,0.2l0.4-0.2l0.3,0.2l0.4-0.2l0.3,0.2l0.4-0.2l0.3,0.2l0.4-0.2
		l0.3,0.2l0.4-0.2l0.3,0.2l5.1-2.8l-13.1,42l46,24.8l0.1-0.3l0.6,0.3l0.1-0.3l0.6,0.3l0.1-0.3l0.6,0.3l0.1-0.3l0.6,0.3l0.1-0.3
		l0.6,0.3l0.1-0.3l0.6,0.3l0.1-0.3l0.6,0.3l0.1-0.3l0.6,0.3l0.1-0.3l0.6,0.3l0.1-0.3l0.6,0.3l0.1-0.3l0.6,0.3l0.1-0.3l0.6,0.3
		l0.1-0.3l0.6,0.3l0.1-0.3l0.6,0.3l0.1-0.3l0.6,0.3l0.1-0.3l0.6,0.3l0.1-0.3l0.6,0.3l0.1-0.3l0.6,0.3l0.1-0.3l0.6,0.3l0.1-0.3
		l0.6,0.3l0.1-0.3l0.6,0.3l0.1-0.3l0.6,0.3l0.1-0.3l0.6,0.3l0.1-0.3l0.6,0.3l0.1-0.3l0.6,0.3l0.1-0.3l0.6,0.3l0.1-0.3l0.6,0.3
		l0.1-0.3l0.6,0.3l0.1-0.3l0.6,0.3l0.1-0.3l0.6,0.3l0.1-0.3l0.6,0.3l0.1-0.3l0.6,0.3l0.1-0.3l0.6,0.3l0.1-0.3l0.6,0.3l0.1-0.3
		l0.6,0.3l0.1-0.3l0.6,0.3l0.1-0.3l0.6,0.3l0.1-0.3l0.6,0.3l0.1-0.3l0.6,0.3l0.1-0.3l0.6,0.3l0.1-0.3l0.6,0.3l0.1-0.3l0.6,0.3
		l0.1-0.3l0.6,0.3l0.1-0.3l0.6,0.3l0.1-0.3l0.6,0.3l0.1-0.3l0.6,0.3l0.1-0.3l0.6,0.3l0.1-0.3l0.6,0.3l0.1-0.3l0.6,0.3l0.1-0.3
		l0.6,0.3l0.1-0.3l0.6,0.3l0.1-0.3l0.6,0.3l0.1-0.3l0.6,0.3l0.1-0.3l0.6,0.3l0.1-0.3l0.6,0.3l0.1-0.3l0.6,0.3l0.1-0.3l0.6,0.3
		l0.1-0.3l0.6,0.3l0.1-0.3l0.6,0.3l0.1-0.3l0.6,0.3l0.1-0.3l0.6,0.3l0.1-0.3l0.6,0.3l0.1-0.3l0.6,0.3l0.1-0.3l0.6,0.3l0.1-0.3
		l0.6,0.3l0.1-0.3l0.6,0.3l0.1-0.3l0.6,0.3l0.1-0.3l0.6,0.3l0.1-0.3l0.6,0.3l0.1-0.3l0.6,0.3l0.1-0.3l0.6,0.3l0.1-0.3l0.6,0.3
		l0.1-0.3l0.6,0.3l0.1-0.3l0.6,0.3l0.1-0.3l0.6,0.3l0.1-0.3l0.6,0.3l0.1-0.3l0.6,0.3l0.1-0.3l0.5,0.3c-1.2,2.8-2,5.9-2.3,8.9
		c-1.8,16,9.5,30.6,33.9,43.7c19.7,10.6,41.6,16.2,65.8,16.6c3.1,0.1,6.2,0,9.2,0h0.7h0.7h2.1h0.7h1.4h0.7h1.4h0.7h2.1h0.7h1.4h0.7
		h1.4h0.7h1.4h0.7h2.1h0.7h1.4h0.7h1.4h0.7h2.1h0.7h1.4h0.7h1.4h0.7h1.4h0.7h2.1h0.7h1.4h0.7h1.4h0.7h1.4h0.7h2.1h0.7h1.4h0.7h1.4
		h0.7h2.1h0.7h1.4h0.7h1.4h0.7h1.4h0.7h2.1h0.7h1.4h0.7h1.4h0.7h1.4h0.7h2.1h0.7h1.4h0.7h1.4h0.7h2.1c8.1-0.2,16.3-0.9,24.3-2.2
		l-71.3,38.7l35.5,19.2l0.4-0.2l0.3,0.2l0.4-0.2l0.3,0.2l0.4-0.2l0.3,0.2l0.4-0.2l0.3,0.2l0.4-0.2l0.3,0.2l0.4-0.2l0.3,0.2l0.4-0.2
		l0.3,0.2l0.4-0.2l0.3,0.2l0.4-0.2l0.3,0.2l0.4-0.2l0.3,0.2l0.4-0.2l0.3,0.2l0.4-0.2l0.3,0.2l0.4-0.2l0.3,0.2l0.4-0.2l0.3,0.2
		l0.4-0.2l0.3,0.2l0.4-0.2l0.3,0.2l0.4-0.2l0.3,0.2l0.4-0.2l0.3,0.2l0.4-0.2l0.3,0.2l0.4-0.2l0.3,0.2l0.4-0.2l0.3,0.2l0.4-0.2
		l0.3,0.2l0.4-0.2l0.3,0.2l0.4-0.2l0.3,0.2l0.4-0.2l0.3,0.2l0.4-0.2l0.3,0.2l0.4-0.2l0.3,0.2l0.4-0.2l0.3,0.2l0.4-0.2l0.3,0.2
		l0.4-0.2l0.3,0.2l0.4-0.2l0.3,0.2l0.4-0.2l0.3,0.2l0.4-0.2l0.3,0.2l0.4-0.2l0.3,0.2l0.4-0.2l0.3,0.2l0.4-0.2l0.3,0.2l0.4-0.2
		l0.3,0.2l0.4-0.2l0.3,0.2l0.4-0.2l0.3,0.2l0.4-0.2l0.3,0.2l0.4-0.2l0.3,0.2l0.4-0.2l0.3,0.2l0.4-0.2l0.3,0.2l0.4-0.2l0.3,0.2
		l0.4-0.2l0.3,0.2l0.4-0.2l0.3,0.2l0.4-0.2l0.3,0.2l0.4-0.2l0.3,0.2l0.4-0.2l0.3,0.2l0.4-0.2l0.3,0.2l0.4-0.2l0.3,0.2l0.4-0.2
		l0.3,0.2l0.4-0.2l0.3,0.2l0.4-0.2l0.3,0.2l0.4-0.2l0.3,0.2l0.4-0.2l0.3,0.2l0.4-0.2l0.3,0.2l0.4-0.2l0.3,0.2l0.4-0.2l0.3,0.2
		l0.4-0.2l0.3,0.2l0.4-0.2l0.3,0.2l0.4-0.2l0.3,0.2l0.4-0.2l0.3,0.2l0.4-0.2l0.3,0.2l0.4-0.2l0.3,0.2l0.4-0.2l0.3,0.2l0.4-0.2
		l0.3,0.2l0.4-0.2l0.3,0.2l0.4-0.2l0.3,0.2l0.4-0.2l0.3,0.2l0.4-0.2l0.3,0.2l0.4-0.2l0.3,0.2l0.4-0.2l0.3,0.2l0.4-0.2l0.3,0.2
		l0.4-0.2l0.3,0.2l0.4-0.2l0.3,0.2l0.4-0.2l0.3,0.2l0.4-0.2l0.3,0.2l0.4-0.2l0.3,0.2l0.4-0.2l0.3,0.2l0.4-0.2l0.3,0.2l0.4-0.2
		l0.3,0.2l0.4-0.2l0.3,0.2l0.4-0.2l0.3,0.2l0.4-0.2l0.3,0.2l0.4-0.2l0.3,0.2l0.4-0.2l0.3,0.2l0.4-0.2l0.3,0.2l0.4-0.2l0.3,0.2
		l0.4-0.2l0.3,0.2l0.4-0.2l0.3,0.2l0.4-0.2l0.3,0.2l0.4-0.2l0.3,0.2l0.4-0.2l0.3,0.2l0.4-0.2l0.3,0.2l0.4-0.2l0.3,0.2l0.4-0.2
		l0.3,0.2l0.4-0.2l0.3,0.2l0.4-0.2l0.3,0.2l0.4-0.2l0.3,0.2l0.4-0.2l0.3,0.2l0.4-0.2l0.3,0.2l0.4-0.2l0.3,0.2l0.4-0.2l0.3,0.2
		l0.4-0.2l0.3,0.2l0.4-0.2l0.3,0.2l0.4-0.2l0.3,0.2l0.4-0.2l0.3,0.2l0.4-0.2l0.3,0.2l0.4-0.2l0.3,0.2l0.4-0.2l0.3,0.2l35.7-20.9
		l28.8,15.5l-75.9,41.2l35.5,19.1l0.4-0.2l0.3,0.2l0.4-0.2l0.3,0.2l0.4-0.2l0.3,0.2l0.4-0.2l0.3,0.2l0.4-0.2l0.3,0.2l0.4-0.2
		l0.3,0.2l0.4-0.2l0.3,0.2l0.4-0.2l0.3,0.2l0.4-0.2l0.3,0.2l0.4-0.2l0.3,0.2l0.4-0.2l0.3,0.2l0.4-0.2l0.3,0.2l0.4-0.2l0.3,0.2
		l0.4-0.2l0.3,0.2l0.4-0.2l0.3,0.2l0.4-0.2l0.3,0.2l0.4-0.2l0.3,0.2l0.4-0.2l0.3,0.2l0.4-0.2l0.3,0.2l0.4-0.2l0.3,0.2l0.4-0.2
		l0.3,0.2l0.4-0.2l0.3,0.2l0.4-0.2l0.3,0.2l0.4-0.2l0.3,0.2l0.4-0.2l0.3,0.2l0.4-0.2l0.3,0.2l0.4-0.2l0.3,0.2l0.4-0.2l0.3,0.2
		l0.4-0.2l0.3,0.2l0.4-0.2l0.3,0.2l0.4-0.2l0.3,0.2l0.4-0.2l0.3,0.2l0.4-0.2l0.3,0.2l0.4-0.2l0.3,0.2l0.4-0.2l0.3,0.2l0.4-0.2
		l0.3,0.2l0.4-0.2l0.3,0.2l0.4-0.2l0.3,0.2l0.4-0.2l0.3,0.2l0.4-0.2l0.3,0.2l0.4-0.2l0.3,0.2l0.4-0.2l0.3,0.2l0.4-0.2l0.3,0.2
		l0.4-0.2l0.3,0.2l0.4-0.2l0.3,0.2l0.4-0.2l0.3,0.2l0.4-0.2l0.3,0.2l0.4-0.2l0.3,0.2l0.4-0.2l0.3,0.2l0.4-0.2l0.3,0.2l0.4-0.2
		l0.3,0.2l0.4-0.2l0.3,0.2l0.4-0.2l0.3,0.2l0.4-0.2l0.3,0.2l0.4-0.2l0.3,0.2l0.4-0.2l0.3,0.2l0.4-0.2l0.3,0.2l0.4-0.2l0.3,0.2
		l0.4-0.2l0.3,0.2l0.4-0.2l0.3,0.2l0.4-0.2l0.3,0.2l0.4-0.2l0.3,0.2l0.4-0.2l0.3,0.2l0.4-0.2l0.3,0.2l0.4-0.2l0.3,0.2l0.4-0.2
		l0.3,0.2l0.4-0.2l0.3,0.2l0.4-0.2l0.3,0.2l0.4-0.2l0.3,0.2l0.4-0.2l0.3,0.2l0.4-0.2l0.3,0.2l0.4-0.2l0.3,0.2l0.4-0.2l0.3,0.2
		l0.4-0.2l0.3,0.2l0.4-0.2l0.3,0.2l0.4-0.2l0.3,0.2l0.4-0.2l0.3,0.2l0.4-0.2l0.3,0.2l0.4-0.2l0.3,0.2l0.4-0.2l0.3,0.2l0.4-0.2
		l0.3,0.2l0.4-0.2l0.3,0.2l0.4-0.2l0.3,0.2l0.4-0.2l0.3,0.2l0.4-0.2l0.3,0.2l0.4-0.2l0.3,0.2l0.4-0.2l0.3,0.2l0.4-0.2l0.3,0.2
		l0.4-0.2l0.3,0.2l0.4-0.2l0.3,0.2l0.4-0.2l0.3,0.2l0.4-0.2l0.3,0.2l0.4-0.2l0.3,0.2l0.4-0.2l0.3,0.2l0.4-0.2l0.3,0.2l0.4-0.2
		l0.3,0.2l0.4-0.2l0.3,0.2l0.4-0.2l0.3,0.2l0.4-0.2l0.3,0.2l0.4-0.2l0.1,0.1l-36.2,19.6l33.3,17.9l0.4-0.2l0.3,0.2l0.4-0.2l0.3,0.2
		l0.4-0.2l0.3,0.2l0.4-0.2l0.3,0.2l0.4-0.2l0.3,0.2l0.4-0.2l0.3,0.2l0.4-0.2l0.3,0.2l0.4-0.2l0.3,0.2l0.4-0.2l0.3,0.2l0.4-0.2
		l0.3,0.2l0.4-0.2l0.3,0.2l0.4-0.2l0.3,0.2l0.4-0.2l0.3,0.2l0.4-0.2l0.3,0.2l0.4-0.2l0.3,0.2l0.4-0.2l0.3,0.2l0.4-0.2l0.3,0.2
		l0.4-0.2l0.3,0.2l0.4-0.2l0.3,0.2l0.4-0.2l0.3,0.2l0.4-0.2l0.3,0.2l0.4-0.2l0.3,0.2l0.4-0.2l0.3,0.2l0.4-0.2l0.3,0.2l0.4-0.2
		l0.3,0.2l0.4-0.2l0.3,0.2l0.4-0.2l0.3,0.2l0.4-0.2l0.3,0.2l0.4-0.2l0.3,0.2l0.4-0.2l0.3,0.2l0.4-0.2l0.3,0.2l0.4-0.2l0.3,0.2
		l0.4-0.2l0.3,0.2l0.4-0.2l0.3,0.2l0.4-0.2l0.3,0.2l0.4-0.2l0.3,0.2l0.4-0.2l0.3,0.2l0.4-0.2l0.3,0.2l0.4-0.2l0.3,0.2l0.4-0.2
		l0.3,0.2l0.4-0.2l0.3,0.2l0.4-0.2l0.3,0.2l0.4-0.2l0.3,0.2l0.4-0.2l0.3,0.2l0.4-0.2l0.3,0.2l0.4-0.2l0.3,0.2l0.4-0.2l0.3,0.2
		l0.4-0.2l0.3,0.2l0.4-0.2l0.3,0.2l0.4-0.2l0.3,0.2l0.4-0.2l0.3,0.2l0.4-0.2l0.3,0.2l0.4-0.2l0.3,0.2l0.4-0.2l0.3,0.2l0.4-0.2
		l0.3,0.2l0.4-0.2l0.3,0.2l0.4-0.2l0.3,0.2l0.4-0.2l0.3,0.2l0.4-0.2l0.3,0.2l0.4-0.2l0.3,0.2l0.4-0.2l0.3,0.2l0.4-0.2l0.3,0.2
		l0.4-0.2l0.3,0.2l0.4-0.2l0.3,0.2l0.4-0.2l0.3,0.2l0.4-0.2l0.3,0.2l0.4-0.2l0.3,0.2l0.4-0.2l0.3,0.2l0.4-0.2l0.3,0.2l0.4-0.2
		l0.3,0.2l0.4-0.2l0.3,0.2l0.4-0.2l0.3,0.2l0.4-0.2l0.3,0.2l0.4-0.2l0.3,0.2l0.4-0.2l0.3,0.2l0.4-0.2l0.3,0.2l0.4-0.2l0.3,0.2
		l0.4-0.2l0.3,0.2l0.4-0.2l0.3,0.2l0.4-0.2l0.3,0.2l0.4-0.2l0.3,0.2l0.4-0.2l0.3,0.2l0.4-0.2l0.3,0.2l0.4-0.2l0.3,0.2l0.4-0.2
		l0.3,0.2l0.4-0.2l0.3,0.2l0.4-0.2l0.3,0.2l0.4-0.2l0.3,0.2l0.4-0.2l0.3,0.2l0.4-0.2l0.3,0.2l0.4-0.2l0.3,0.2l0.4-0.2l0.3,0.2
		l0.4-0.2l0.3,0.2l0.4-0.2l0.3,0.2l0.4-0.2l0.3,0.2l0.4-0.2l0.3,0.2l0.4-0.2l0.3,0.2l0.4-0.2l0.3,0.2l0.4-0.2l0.3,0.2l0.4-0.2
		l0.3,0.2l0.4-0.2l0.3,0.2l0.4-0.2l0.3,0.2l0.4-0.2l0.3,0.2l0.4-0.2l0.3,0.2l0.4-0.2l0.3,0.2l0.4-0.2l0.3,0.2l0.4-0.2l0.3,0.2
		l0.4-0.2l0.3,0.2l0.4-0.2l0.3,0.2l0.4-0.2l0.3,0.2l0.4-0.2l0.3,0.2l15.1-8.2l-23.3,47.2l35.7,19.3l0.4-0.2l0.3,0.2l0.4-0.2l0.3,0.2
		l0.4-0.2l0.3,0.2l0.4-0.2l0.3,0.2l0.4-0.2l0.3,0.2l0.4-0.2l0.3,0.2l0.4-0.2l0.3,0.2l0.4-0.2l0.3,0.2l0.4-0.2l0.3,0.2l0.4-0.2
		l0.3,0.2l0.4-0.2l0.3,0.2l0.4-0.2l0.3,0.2l0.4-0.2l0.3,0.2l0.4-0.2l0.3,0.2l0.4-0.2l0.3,0.2l0.4-0.2l0.3,0.2l0.4-0.2l0.3,0.2
		l0.4-0.2l0.3,0.2l0.4-0.2l0.3,0.2l0.4-0.2l0.3,0.2l0.4-0.2l0.3,0.2l0.4-0.2l0.3,0.2l0.4-0.2l0.3,0.2l0.4-0.2l0.3,0.2l0.4-0.2
		l0.3,0.2l0.4-0.2l0.3,0.2l0.4-0.2l0.3,0.2l0.4-0.2l0.3,0.2l0.4-0.2l0.3,0.2l0.4-0.2l0.3,0.2l0.4-0.2l0.3,0.2l0.4-0.2l0.3,0.2
		l0.4-0.2l0.3,0.2l0.4-0.2l0.3,0.2l0.4-0.2l0.3,0.2l0.4-0.2l0.3,0.2l0.4-0.2l0.3,0.2l0.4-0.2l0.3,0.2l0.4-0.2l0.3,0.2l0.4-0.2
		l0.3,0.2l0.4-0.2l0.3,0.2l0.4-0.2l0.3,0.2l0.4-0.2l0.3,0.2l0.4-0.2l0.3,0.2l0.4-0.2l0.3,0.2l0.4-0.2l0.3,0.2l0.4-0.2l0.3,0.2
		l0.4-0.2l0.3,0.2l0.4-0.2l0.3,0.2l0.4-0.2l0.3,0.2l0.4-0.2l0.3,0.2l0.4-0.2l0.3,0.2l0.4-0.2l0.3,0.2l0.4-0.2l0.3,0.2l0.4-0.2
		l0.3,0.2l0.4-0.2l0.3,0.2l0.4-0.2l0.3,0.2l0.4-0.2l0.3,0.2l0.4-0.2l0.3,0.2l0.4-0.2l0.3,0.2l0.4-0.2l0.3,0.2l0.4-0.2l0.3,0.2
		l0.4-0.2l0.3,0.2l0.4-0.2l0.3,0.2l0.4-0.2l0.3,0.2l0.4-0.2l0.3,0.2l0.4-0.2l0.3,0.2l0.4-0.2l0.3,0.2l0.4-0.2l0.3,0.2l0.4-0.2
		l0.3,0.2l0.4-0.2l0.3,0.2l0.4-0.2l0.3,0.2l0.4-0.2l0.3,0.2l0.4-0.2l0.3,0.2l0.4-0.2l0.3,0.2l0.4-0.2l0.3,0.2l0.4-0.2l0.3,0.2
		l0.4-0.2l0.3,0.2l0.4-0.2l0.3,0.2l0.4-0.2l0.3,0.2l0.4-0.2l0.3,0.2l0.4-0.2l0.3,0.2l0.4-0.2l0.3,0.2l0.4-0.2l0.3,0.2l0.4-0.2
		l0.3,0.2l0.4-0.2l0.3,0.2l0.4-0.2l0.3,0.2l0.4-0.2l0.3,0.2l0.4-0.2l0.3,0.2l0.4-0.2l0.3,0.2l0.4-0.2l0.3,0.2l0.4-0.2l0.3,0.2
		l0.4-0.2l0.3,0.2l0.4-0.2l0.3,0.2l0.4-0.2l0.3,0.2l0.4-0.2l0.3,0.2l0.4-0.2l0.3,0.2l0.4-0.2l0.3,0.2l0.4-0.2l0.3,0.2l0.4-0.2
		l0.3,0.2l0.4-0.2l0.3,0.2l0.4-0.2l0.3,0.2l0.4-0.2l0.3,0.2l0.4-0.2l0.3,0.2l0.4-0.2l0.3,0.2l0.4-0.2l0.3,0.2l0.4-0.2l0.3,0.2
		l0.4-0.2l0.3,0.2l0.4-0.2l0.3,0.2l0.4-0.2l0.3,0.2l0.4-0.2l0.3,0.2L1685.4,948.5z M520.2,411.8l-0.4,0.2l-0.3-0.2l-0.4,0.2
		l-0.3-0.2l-0.4,0.2l-0.3-0.2l-0.4,0.2l-0.3-0.2l-0.4,0.2l-0.3-0.2l-0.4,0.2l-0.3-0.2l-0.4,0.2l-0.3-0.2l-0.4,0.2l-0.3-0.2l-0.4,0.2
		l-0.3-0.2l-0.4,0.2l-0.3-0.2l-0.4,0.2l-0.3-0.2l-0.4,0.2l-0.3-0.2l-0.4,0.2L511,412l-0.4,0.2l-0.3-0.2l-0.4,0.2l-0.3-0.2l-0.4,0.2
		l-0.3-0.2l-0.4,0.2l-0.3-0.2l-0.4,0.2l-0.3-0.2l-0.4,0.2l-0.3-0.2l-0.4,0.2l-0.3-0.2l-0.4,0.2l-0.3-0.2l-0.4,0.2l-0.3-0.2l-0.4,0.2
		l-0.3-0.2l-0.4,0.2l-0.3-0.2l-0.4,0.2l-0.3-0.2l-0.4,0.2l-0.3-0.2l-0.4,0.2l-0.3-0.2l-0.4,0.2l-0.3-0.2l-0.4,0.2l-0.3-0.2l-0.4,0.2
		l-0.3-0.2l-0.4,0.2l-0.3-0.2l-0.4,0.2l-0.3-0.2l-0.4,0.2l-0.3-0.2l-0.4,0.2l-0.3-0.2l-0.4,0.2l-0.3-0.2l-0.4,0.2l-0.3-0.2l-0.4,0.2
		l-0.3-0.2l-0.4,0.2l-0.3-0.2l-0.4,0.2l-0.3-0.2l-0.4,0.2l-0.3-0.2l-0.4,0.2l-0.3-0.2l-0.4,0.2l-0.3-0.2l-0.4,0.2l-0.3-0.2l-0.4,0.2
		l-0.3-0.2l-0.4,0.2l-0.3-0.2l-0.4,0.2l-0.3-0.2l-0.4,0.2l-0.3-0.2l-0.4,0.2l-0.3-0.2l-0.4,0.2l-0.3-0.2l-0.4,0.2l-0.3-0.2l-0.4,0.2
		l-0.3-0.2l-0.4,0.2l-0.3-0.2l-0.4,0.2l-0.3-0.2l-0.4,0.2l-0.3-0.2l-0.4,0.2l-0.3-0.2l-0.4,0.2l-0.3-0.2l-0.4,0.2l-0.3-0.2l-0.4,0.2
		l-0.3-0.2l-0.4,0.2l-0.3-0.2l-0.4,0.2l-0.3-0.2l-0.4,0.2l-0.3-0.2l-0.4,0.2l-0.3-0.2l-0.4,0.2l-0.3-0.2l-0.4,0.2l-0.3-0.2l-0.4,0.2
		l-0.3-0.2l-0.4,0.2l-0.3-0.2l-0.4,0.2l-0.3-0.2l-0.4,0.2l-0.3-0.2l-0.4,0.2l-0.3-0.2l-0.4,0.2l-0.3-0.2l-0.4,0.2l-0.3-0.2L470,413
		l-0.3-0.2l-0.4,0.2l-0.3-0.2l-0.4,0.2l-0.3-0.2l-0.4,0.2l-0.3-0.2l-0.4,0.2l-0.3-0.2l-0.4,0.2l-0.3-0.2l-0.4,0.2l-0.3-0.2l-0.4,0.2
		l-0.3-0.2l-0.4,0.2l-0.3-0.2l-0.4,0.2l-0.3-0.2l-0.4,0.2l-0.3-0.2l-0.4,0.2l-0.3-0.2l-0.4,0.2l-0.3-0.2l-0.4,0.2l-0.3-0.2l-0.4,0.2
		l-0.3-0.2l-0.4,0.2l-0.3-0.2l-0.4,0.1l-0.3-0.2l-0.4,0.2l-0.3-0.2l-0.4,0.2L457,413l-0.4,0.2l-0.3-0.2l-0.4,0.2l-0.3-0.2l-0.4,0.2
		l-0.3-0.2l-0.4,0.2l-0.3-0.2l-0.4,0.2l-0.3-0.2l-11.4,6.2c-0.2-9.6,9.8-19.8,29.9-30.8c7.4-4.1,15.2-7.6,23.1-10.5
		c2.8,1.1,5.6,2.3,8.2,3.8c7.2,3.9,12.5,8.1,15.8,12.6C523.5,400.3,523.8,406.1,520.2,411.8L520.2,411.8z M599.6,448.4l-22.1-11.9
		l0,0l0.4,0.2l0.3-0.2l0.4,0.2l0.3-0.2l0.4,0.2l0.3-0.2l0.4,0.2l0.3-0.2l0.4,0.2l0.3-0.2l0.4,0.2l0.3-0.2l0.4,0.2l0.3-0.2l0.4,0.2
		l0.3-0.2l0.4,0.2l0.3-0.2l0.4,0.2l0.3-0.2l0.4,0.2l0.3-0.2l0.4,0.2l0.3-0.2l0.4,0.2l0.3-0.2l0.4,0.2l0.3-0.2l0.4,0.2l0.3-0.2
		l0.4,0.2l0.3-0.2l0.4,0.2l0.3-0.2l0.4,0.2l0.3-0.2l0.4,0.2l0.3-0.2l0.4,0.2l0.3-0.2l0.4,0.2l0.3-0.2l0.4,0.2l0.3-0.2l0.4,0.2
		l0.4-0.3l0.4,0.2l0.3-0.2l0.4,0.2l0.3-0.2l0.4,0.2l0.3-0.2l0.4,0.2l0.3-0.2l0.4,0.2l0.3-0.2l0.4,0.2l0.3-0.2l0.4,0.2l0.3-0.2
		l0.4,0.2l0.3-0.2l0.4,0.2l0.3-0.2l0.4,0.2l0.3-0.2l0.4,0.2l0.3-0.2l0.4,0.2l0.3-0.2l0.4,0.2l0.3-0.2l0.4,0.2l0.3-0.2l0.4,0.2
		l0.3-0.2l0.4,0.2l0.3-0.2l0.4,0.2l0.3-0.2l0.4,0.2l0.3-0.2l0.4,0.2l0.3-0.2l0.4,0.2l0.3-0.2l0.4,0.2l0.3-0.2l0.4,0.2l0.3-0.2
		l0.4,0.2l0.3-0.2l0.4,0.2l0.3-0.2l0.4,0.2l0.3-0.2l0.4,0.2l0.3-0.2l0.4,0.2l0.3-0.2l0.4,0.2l0.3-0.2l0.4,0.2l0.3-0.2l0.4,0.2
		l0.3-0.2l0.4,0.2l0.3-0.2l0.4,0.2l0.3-0.2l0.4,0.2l0.3-0.2l0.4,0.2l0.3-0.2l0.4,0.2l0.3-0.2l0.4,0.2l0.3-0.2l0.4,0.2l0.3-0.2
		l0.4,0.2l0.3-0.2l0.4,0.2l0.3-0.2l0.4,0.2l0.3-0.2l0.4,0.2l0.3-0.2l0.3,0.2L599.6,448.4z M1199.2,807.6l-0.5,0.1l-0.2-0.1l-0.5,0.1
		l-0.2-0.1l-0.5,0.1l-0.2-0.1l-0.5,0.1l-0.2-0.1l-0.5,0.1l-0.2-0.1l-0.5,0.1l-0.2-0.1l-0.5,0.1l-0.2-0.1l-0.5,0.1l-0.2-0.1l-0.5,0.1
		l-0.2-0.1c-0.2,0.1-0.3,0.1-0.5,0.1l-0.2-0.1l-0.5,0.1l-0.2-0.1l-0.5,0.1l-0.2-0.1c-0.2,0.1-0.3,0.1-0.5,0.1l-0.2-0.1l-0.5,0.1
		l-0.2-0.1l-0.5,0.1l-0.2-0.1l-0.5,0.1l-0.2-0.1l-0.5,0.1l-0.2-0.1l-0.5,0.1l-0.2-0.1l-0.5,0.1l-0.2-0.1l-0.5,0.1l-0.2-0.1
		c-0.2,0-0.3,0.1-0.5,0.1l-0.2-0.1l-0.5,0.1l-0.2-0.1c-0.2,0.1-0.3,0.1-0.5,0.1l-0.2-0.1l-0.5,0.1l-0.2-0.1l-0.5,0.1l-0.2-0.1
		l-0.5,0.1l-0.2-0.1l-0.5,0.1l-0.2-0.1l-0.5,0.1l-0.2-0.1l-0.5,0.1l-0.2-0.1l-0.5,0.1l-0.2-0.1l-0.5,0.1l-0.2-0.1l-0.5,0.1l-0.2-0.1
		c-0.2,0.1-0.3,0.1-0.5,0.1l-0.2-0.1l-0.5,0.1l-0.2-0.1l-0.5,0.1l-0.2-0.1c-0.2,0.1-0.3,0.1-0.5,0.1l-0.2-0.1l-0.5,0.1l-0.2-0.1
		l-0.5,0.1l-0.2-0.1l-0.5,0.1l-0.2-0.1l-0.5,0.1l-0.2-0.1l-0.5,0.1l-0.2-0.1l-0.5,0.1l-0.2-0.1l-0.5,0.1l-0.2-0.1
		c-0.2,0-0.3,0.1-0.5,0.1l-0.2-0.1l-0.5,0.1l-0.2-0.1l-0.5,0.1l-0.2-0.1l-0.5,0.1l-0.2-0.1l-0.5,0.1l-0.2-0.1
		c-0.2,0.1-0.3,0.1-0.5,0.1l-0.2-0.1l-0.5,0.1l-0.2-0.1l-0.5,0.1l-0.2-0.1l-0.5,0.1l-0.2-0.1l-0.5,0.1l-0.2-0.1l-0.5,0.1l-0.2-0.1
		l-0.5,0.1l-0.2-0.1l-0.5,0.1l-0.2-0.1c-0.2,0-0.3,0.1-0.5,0.1l-0.2-0.1l-0.5,0.1l-0.2-0.1c-0.2,0.1-0.3,0.1-0.5,0.1l-0.2-0.1
		l-0.5,0.1l-0.2-0.1l-0.5,0.1l-0.2-0.1l-0.5,0.1l-0.2-0.1l-0.5,0.1l-0.2-0.1l-0.5,0.1l-0.2-0.1l-0.5,0.1l-0.2-0.1l-0.5,0.1l-0.2-0.1
		l-0.5,0.1l-0.2-0.1l-0.5,0.1l-0.2-0.1l-0.5,0.1l-0.2-0.1l-0.5,0.1l-0.2-0.1l-0.5,0.1l-0.2-0.1c-0.2,0.1-0.3,0.1-0.5,0.1l-0.2-0.1
		l-0.5,0.1l-0.2-0.1l-0.5,0.1l-0.2-0.1l-0.5,0.1l-0.2-0.1l-0.5,0.1l-0.2-0.1l-0.5,0.1l-0.2-0.1l-0.5,0.1l-0.2-0.1l-0.5,0.1l-0.2-0.1
		l-0.5,0.1l-0.2-0.1l-0.5,0.1l-0.2-0.1c-0.2,0.1-0.3,0.1-0.5,0.1l-0.2-0.1l-0.5,0.1l-0.2-0.1l-0.5,0.1l-0.2-0.1
		c-0.2,0.1-0.3,0.1-0.5,0.1l-0.2-0.1l-0.5,0.1l-0.2-0.1l-0.2,0.1c-2.8-1.1-5.6-2.3-8.2-3.8c-12-6.4-17.1-14.3-15.3-23.7
		c1.7-9.3,12.1-19.2,31.2-29.5c6.8-3.7,13.9-7,21.1-9.8c0.7,0.3,1.3,0.6,2,1c12.5,6.7,18.3,13.8,17.3,21.3
		c-0.6,4.2-3.8,9.1-9.7,14.7l35.8,19.3l0.3-0.2l0.4,0.2l0.3-0.2l0.4,0.2l0.3-0.2l0.4,0.2l0.3-0.2l0.4,0.2l0.3-0.2l0.4,0.2
		c0.1-0.1,0.2-0.2,0.3-0.2l0.4,0.2l0.3-0.2l0.4,0.2l0.3-0.2l0.4,0.2l0.3-0.2l0.4,0.2l0.3-0.2l0.4,0.2l0.3-0.2l0.4,0.2l0.3-0.2
		l0.4,0.2l0.3-0.2l0.4,0.2c0.1-0.1,0.2-0.1,0.3-0.2l0.4,0.2l0.3-0.2l0.4,0.2l0.3-0.2l0.4,0.2c0.1-0.1,0.2-0.2,0.3-0.2l0.4,0.2
		l0.3-0.2l0.4,0.2l0.3-0.2l0.4,0.2l0.3-0.2l0.4,0.2l0.3-0.2l0.4,0.2l0.3-0.2l0.4,0.2l0.3-0.2l0.4,0.2c0.1-0.1,0.2-0.1,0.3-0.2
		l0.4,0.2l0.3-0.2l0.4,0.2l0.3-0.2l0.4,0.2l0.3-0.2l0.4,0.2l0.3-0.2l0.4,0.2c0.1-0.1,0.2-0.2,0.3-0.2l0.4,0.2l0.3-0.2l0.4,0.2
		l0.3-0.2l0.4,0.2c0.1-0.1,0.2-0.1,0.3-0.2l0.4,0.2l0.3-0.2l0.4,0.2l0.3-0.2l0.4,0.2l0.3-0.2l0.4,0.2l0.3-0.2l0.4,0.2
		c0.1-0.1,0.2-0.1,0.3-0.2l0.4,0.2l0.3-0.2l0.4,0.2c0.1-0.1,0.2-0.2,0.3-0.2l0.4,0.2c0.1-0.1,0.2-0.2,0.3-0.2l0.4,0.2l0.3-0.2
		l0.4,0.2l0.3-0.2l0.4,0.2c0.1-0.1,0.2-0.2,0.3-0.2l0.4,0.2l0.3-0.2l0.4,0.2l0.3-0.2l0.4,0.2l0.3-0.2l0.4,0.2l0.3-0.2l0.4,0.2
		l0.3-0.2l0.4,0.2l0.3-0.2l0.4,0.2c0.1-0.1,0.2-0.1,0.3-0.2l0.4,0.2l0.3-0.2l0.4,0.2l0.3-0.2l0.4,0.2l0.3-0.2l0.4,0.2l0.3-0.2
		l0.4,0.2c0.1-0.1,0.2-0.1,0.3-0.2l0.4,0.2l0.3-0.2l0.4,0.2l0.3-0.2l0.4,0.2l0.3-0.2l0.4,0.2l0.3-0.2l0.4,0.2
		c0.1-0.1,0.2-0.1,0.3-0.2l0.4,0.2l0.3-0.2l0.4,0.2l0.3-0.2l0.4,0.2c0.1-0.1,0.2-0.1,0.3-0.2l0.4,0.2l0.3-0.2l0.4,0.2
		c0.1-0.1,0.2-0.2,0.3-0.2l0.4,0.2l0.3-0.2l0.4,0.2l0.3-0.2l0.4,0.2l0.3-0.2l0.4,0.2c0.1-0.1,0.2-0.2,0.3-0.2l0.4,0.2l0.3-0.2
		l0.4,0.2l0.3-0.2l0.4,0.2l0.3-0.2l0.4,0.2c0.1-0.1,0.2-0.1,0.3-0.2l0.4,0.2l0.3-0.2l0.4,0.2l0.3-0.2l0.4,0.2l0.3-0.2l0.4,0.2
		l0.3-0.2l0.4,0.2l0.3-0.2l0.4,0.2l0.3-0.2l0.4,0.2l0.3-0.2l0.4,0.2l0.3-0.2l0.4,0.2l0.3-0.2l0.4,0.2l0.3-0.2l0.4,0.2l0.3-0.2
		l0.1,0.1l-45.7,24.8L1199.2,807.6z M609.8,520.6l5.2-2.8l4.4,2.3c7.3,4,12,7.6,14.2,10.8c0.7,1,1.2,2.1,1.5,3.3L609.8,520.6z
		 M753,532.3h2.1c0.2,0,0.4,0,0.7,0H774c6.5-0.3,12.8-1.5,19-3.4l-36.8,20C758,543.2,757,537.8,753,532.3L753,532.3z"/>
	<polygon class="st2" points="110.3,283.7 110.7,283.9 111,283.7 111.4,283.9 175.1,249.3 338.6,222.5 298.1,200.7 297.5,200.8 
		297.3,200.7 296.8,200.8 296.6,200.7 296.1,200.8 295.9,200.7 295.4,200.8 295.2,200.7 294.7,200.8 294.5,200.7 294,200.8 
		293.8,200.8 293.3,200.9 293.1,200.8 292.6,200.9 292.4,200.8 291.9,200.9 291.7,200.8 291.2,200.9 291,200.8 290.5,200.9 
		290.3,200.8 289.8,200.9 289.6,200.8 289.1,200.9 288.9,200.8 288.4,201 288.2,200.9 287.7,201 287.5,200.9 287,201 286.8,200.9 
		286.3,201 286.1,200.9 285.6,201 285.4,200.9 284.9,201 284.7,200.9 284.2,201 284,200.9 283.5,201 283.3,201 282.8,201.1 
		282.6,201 282.1,201.1 281.9,201 281.4,201.1 281.2,201 280.7,201.1 280.5,201 280,201.1 279.8,201 279.3,201.1 279.1,201 
		278.6,201.1 278.4,201 277.9,201.2 277.7,201.1 277.2,201.2 277,201.1 276.5,201.2 276.3,201.1 275.8,201.2 275.6,201.1 
		275.1,201.2 274.9,201.1 274.4,201.2 274.2,201.1 273.7,201.2 273.5,201.1 273,201.2 272.8,201.1 272.3,201.3 272.1,201.2 
		271.6,201.3 271.4,201.2 270.9,201.3 270.7,201.2 270.2,201.3 270,201.2 269.4,201.3 269.3,201.2 268.7,201.3 268.6,201.2 
		268,201.3 267.9,201.2 267.3,201.3 267.2,201.3 266.6,201.4 266.5,201.3 265.9,201.4 265.8,201.3 265.2,201.4 265.1,201.3 
		264.5,201.4 264.4,201.3 263.8,201.4 263.7,201.3 263.1,201.4 263,201.3 262.4,201.4 262.3,201.3 261.7,201.4 261.6,201.4 
		261,201.5 260.9,201.4 260.3,201.5 260.2,201.4 259.6,201.5 259.5,201.4 258.9,201.5 258.7,201.4 258.2,201.5 258,201.4 
		257.5,201.5 257.3,201.4 256.8,201.5 256.6,201.4 256.1,201.6 255.9,201.5 255.4,201.6 255.2,201.5 254.7,201.6 254.5,201.5 
		254,201.6 253.8,201.5 253.3,201.6 253.1,201.5 252.6,201.6 252.4,201.5 251.9,201.6 251.7,201.5 251.2,201.6 251,201.6 
		250.5,201.7 250.3,201.6 249.8,201.7 249.6,201.6 249.1,201.7 248.9,201.6 248.4,201.7 248.2,201.6 247.7,201.7 247.5,201.6 
		247,201.7 246.8,201.6 246.3,201.7 246.1,201.6 245.6,201.8 245.4,201.7 244.9,201.8 244.7,201.7 244.2,201.8 244,201.7 
		243.5,201.8 243.3,201.7 242.8,201.8 242.6,201.7 242.1,201.8 241.9,201.7 241.4,201.8 241.2,201.7 240.7,201.8 240.5,201.7 
		240,201.9 239.8,201.8 239.3,201.9 239.1,201.8 238.6,201.9 238.4,201.8 237.9,201.9 237.7,201.8 237.2,201.9 237,201.8 
		236.5,201.9 236.3,201.8 235.8,201.9 235.6,201.8 235.1,201.9 234.9,201.9 234.4,202 234.2,201.9 233.7,202 233.5,201.9 233,202 
		232.8,201.9 232.3,202 232.1,201.9 231.5,202 231.4,201.9 230.8,202 230.7,201.9 230.1,202 230,201.9 229.4,202.1 229.3,202 
		228.7,202.1 228.6,202 228,202.1 227.9,202 227.3,202.1 227.2,202 226.6,202.1 226.5,202 225.9,202.1 225.8,202 225.2,202.1 
		225.1,202 224.5,202.1 224.4,202 223.8,202.2 223.7,202.1 223.1,202.2 223,202.1 222.4,202.2 222.3,202.1 221.7,202.2 221.5,202.1 
		221,202.2 220.8,202.1 220.3,202.2 220.1,202.1 200.7,206.1 228.5,163.2 186.4,140.5 186.2,140.8 185.7,140.5 185.5,140.8 
		185,140.5 184.8,140.8 184.3,140.5 184.1,140.8 183.6,140.6 183.4,140.9 182.9,140.6 182.7,140.9 182.2,140.6 182,140.9 
		181.5,140.6 181.3,140.9 180.8,140.6 180.6,140.9 180.1,140.6 179.9,140.9 179.4,140.6 179.2,140.9 178.7,140.6 178.5,140.9 
		178,140.7 177.8,141 177.3,140.7 177.1,141 176.6,140.7 176.4,141 175.9,140.7 175.7,141 175.2,140.7 175,141 174.5,140.7 
		174.3,141 173.8,140.7 173.6,141 173.1,140.7 172.9,141.1 172.4,140.8 172.2,141.1 171.7,140.8 171.5,141.1 171,140.8 170.8,141.1 
		170.3,140.8 170.1,141.1 169.6,140.8 169.4,141.1 168.9,140.8 168.7,141.1 168.2,140.8 168,141.1 167.4,140.8 167.3,141.2 
		166.7,140.9 166.6,141.2 166,140.9 165.9,141.2 165.3,140.9 165.2,141.2 164.6,140.9 164.5,141.2 163.9,140.9 163.8,141.2 
		163.2,140.9 163.1,141.2 162.5,140.9 162.4,141.2 161.8,141 161.7,141.3 161.1,141 161,141.3 160.4,141 160.3,141.3 159.7,141 
		159.6,141.3 159,141 158.9,141.3 158.3,141 158.2,141.3 157.6,141 157.5,141.3 156.9,141 156.8,141.4 156.2,141.1 156.1,141.4 
		155.5,141.1 155.4,141.4 154.8,141.1 154.7,141.4 154.1,141.1 154,141.4 153.4,141.1 153.3,141.4 152.7,141.1 152.6,141.4 
		152,141.1 151.8,141.4 151.3,141.2 151.1,141.5 150.6,141.2 150.4,141.5 149.9,141.2 149.7,141.5 149.2,141.2 149,141.5 
		148.5,141.2 148.3,141.5 147.8,141.2 147.6,141.5 147.1,141.2 146.9,141.5 146.4,141.2 146.2,141.5 145.7,141.3 145.5,141.6 
		145,141.3 144.8,141.6 144.3,141.3 144.1,141.6 143.6,141.3 143.4,141.6 142.9,141.3 142.7,141.6 142.2,141.3 142,141.6 
		141.5,141.3 141.3,141.6 140.8,141.3 140.6,141.7 140.1,141.4 139.9,141.7 139.4,141.4 139.2,141.7 138.7,141.4 138.5,141.7 
		138,141.4 137.8,141.7 137.3,141.4 137.1,141.7 136.6,141.4 136.4,141.7 135.9,141.4 135.7,141.7 135.2,141.5 135,141.8 
		134.5,141.5 134.3,141.8 133.8,141.5 133.6,141.8 133.1,141.5 132.9,141.8 132.4,141.5 132.2,141.8 131.7,141.5 131.5,141.8 
		131,141.5 130.8,141.8 130.3,141.5 130.1,141.8 129.5,141.6 129.4,141.9 128.8,141.6 128.7,141.9 128.1,141.6 128,141.9 
		127.4,141.6 127.3,141.9 126.7,141.6 126.6,141.9 126,141.6 125.9,141.9 125.3,141.6 125.2,141.9 124.6,141.6 124.5,142 
		123.9,141.7 123.8,142 123.2,141.7 123.1,142 122.5,141.7 122.4,142 121.8,141.7 121.7,142 121.1,141.7 121,142 120.4,141.7 
		120.3,142 119.7,141.7 119.6,142 119,141.8 118.9,142.1 118.3,141.8 118.2,142.1 117.6,141.8 117.5,142.1 116.9,141.8 116.8,142.1 
		116.2,141.8 116.1,142.1 115.5,141.8 115.4,142.1 114.8,141.8 114.7,142.1 114.1,141.8 113.9,142.1 113.4,141.9 113.2,142.2 
		112.7,141.9 112.5,142.2 112,141.9 111.8,142.2 111.3,141.9 111.1,142.2 110.6,141.9 110.4,142.2 109.9,141.9 109.7,142.2 
		109.2,141.9 109,142.2 108.5,141.9 61.4,231.5 -2.3,266.1 33.5,285.3 33.8,285.1 34.2,285.3 34.5,285.1 34.9,285.3 35.2,285.1 
		35.6,285.3 35.9,285.1 36.3,285.3 36.6,285.1 37,285.3 37.3,285.1 37.7,285.2 38,285 38.4,285.2 38.7,285 39.1,285.2 39.4,285 
		39.8,285.2 40.1,285 40.5,285.2 40.8,285 41.2,285.2 41.5,285 41.9,285.2 42.2,285 42.6,285.1 42.9,285 43.3,285.1 43.6,284.9 
		44,285.1 44.3,284.9 44.7,285.1 45,284.9 45.4,285.1 45.7,284.9 46.1,285.1 46.5,284.9 46.8,285.1 47.2,284.9 47.5,285.1 
		47.9,284.9 48.2,285 48.6,284.8 48.9,285 49.3,284.8 49.6,285 50,284.8 50.3,285 50.7,284.8 51,285 51.4,284.8 51.7,285 
		52.1,284.8 52.4,285 52.8,284.8 53.1,285 53.5,284.8 53.8,284.9 54.2,284.7 54.5,284.9 54.9,284.7 55.2,284.9 55.6,284.7 
		55.9,284.9 56.3,284.7 56.6,284.9 57,284.7 57.3,284.9 57.7,284.7 58,284.9 58.4,284.7 58.7,284.8 59.1,284.7 59.4,284.8 
		59.8,284.6 60.1,284.8 60.5,284.6 60.8,284.8 61.2,284.6 61.5,284.8 61.9,284.6 62.2,284.8 62.6,284.6 62.9,284.8 63.3,284.6 
		63.6,284.8 64,284.6 64.3,284.7 64.7,284.5 65,284.7 65.4,284.5 65.7,284.7 66.1,284.5 66.4,284.7 66.8,284.5 67.1,284.7 
		67.5,284.5 67.8,284.7 68.2,284.5 68.5,284.7 68.9,284.5 69.2,284.7 69.6,284.5 70,284.6 70.3,284.4 70.7,284.6 71,284.4 
		71.4,284.6 71.7,284.4 72.1,284.6 72.4,284.4 72.8,284.6 73.1,284.4 73.5,284.6 73.8,284.4 74.2,284.6 74.5,284.4 74.9,284.5 
		75.2,284.4 75.6,284.5 75.9,284.3 76.3,284.5 76.6,284.3 77,284.5 77.3,284.3 77.7,284.5 78,284.3 78.4,284.5 78.7,284.3 
		79.1,284.5 79.4,284.3 79.8,284.5 80.1,284.3 80.5,284.4 80.8,284.2 81.2,284.4 81.5,284.2 81.9,284.4 82.2,284.2 82.6,284.4 
		82.9,284.2 83.3,284.4 83.6,284.2 84,284.4 84.3,284.2 84.7,284.4 85.1,284.2 85.4,284.4 85.8,284.2 86.1,284.3 86.5,284.1 
		86.8,284.3 87.2,284.1 87.5,284.3 87.9,284.1 88.2,284.3 88.6,284.1 88.9,284.3 89.3,284.1 89.6,284.3 90,284.1 90.3,284.3 
		90.7,284.1 91,284.2 91.4,284.1 91.7,284.2 92.1,284 92.4,284.2 92.8,284 93.1,284.2 93.5,284 93.8,284.2 94.2,284 94.5,284.2 
		94.9,284 95.2,284.2 95.6,284 95.9,284.2 96.3,284 96.6,284.1 97,283.9 97.3,284.1 97.7,283.9 98,284.1 98.4,283.9 98.7,284.1 
		99.1,283.9 99.4,284.1 99.8,283.9 100.1,284.1 100.5,283.9 100.8,284.1 101.2,283.9 101.5,284.1 101.9,283.9 102.2,284 
		102.6,283.8 102.9,284 103.3,283.8 103.6,284 104,283.8 104.3,284 104.7,283.8 105,284 105.4,283.8 105.7,284 106.1,283.8 
		106.4,284 106.8,283.8 107.1,283.9 107.5,283.8 107.9,283.9 108.2,283.7 108.6,283.9 108.9,283.7 109.3,283.9 109.6,283.7 
		110,283.9 	"/>
</g>
<polygon class="st3" points="262,41.7 261.6,160.1 223.1,219.4 223.5,101 "/>
<polygon class="st3" points="372,101 371.7,219.4 208.2,246.2 208.6,127.8 "/>
<polygon class="st4" points="372,101 208.6,127.8 144.8,162.4 109.1,143.1 172.8,108.5 219.9,19 262,41.7 223.5,101 331.5,79.2 "/>
<polygon class="st3" points="208.6,127.8 208.2,246.2 144.5,280.8 144.8,162.4 "/>
<polygon class="st5" points="144.8,162.4 144.5,280.8 108.7,261.5 109.1,143.1 "/>
<polygon class="st3" points="375.8,156.4 375.4,274.8 254.8,340.3 255.2,221.9 "/>
<polygon class="st5" points="255.2,221.9 254.8,340.3 221.5,322.3 221.9,203.9 "/>
<polygon class="st3" points="429.3,131.9 429,250.3 378.4,351.2 378.7,232.8 "/>
<polygon class="st4" points="530.5,186.5 360.6,278.7 324.9,259.4 375.8,156.4 255.2,221.9 221.9,203.9 391.8,111.7 429.3,131.9 
	378.7,232.8 497.2,168.5 "/>
<polygon class="st3" points="530.5,186.5 530.2,304.9 360.2,397.1 360.6,278.7 "/>
<polygon class="st5" points="360.6,278.7 360.2,397.1 324.5,377.8 324.9,259.4 "/>
<path class="st6" d="M634.1,281.1l-0.4,118.4c-0.1-3.5-1.3-7-3.5-9.7c-3.3-4.5-8.6-8.7-15.8-12.6c-13.8-7.5-30.2-10.8-49.4-9.9
	c-19.2,0.8-39.1,6.9-59.8,18.1c-20,10.8-30,21-30,30.5l0.4-118.4c0-9.5,10-19.7,30-30.5c20.7-11.2,40.7-17.3,59.8-18.1
	s35.7,2.5,49.4,9.9c7.2,3.9,12.5,8.1,15.8,12.6C632.8,274.2,634,277.6,634.1,281.1z"/>
<g>
	<defs>
		<path id="SVGID_1_" d="M634.1,281.1l-0.4,118.4c-0.1-3.5-1.3-7-3.5-9.7c-3.3-4.5-8.6-8.7-15.8-12.6c-13.8-7.5-30.2-10.8-49.4-9.9
			c-19.2,0.8-39.1,6.9-59.8,18.1c-20,10.8-30,21-30,30.5l0.4-118.4c0-9.5,10-19.7,30-30.5c20.7-11.2,40.7-17.3,59.8-18.1
			s35.7,2.5,49.4,9.9c7.2,3.9,12.5,8.1,15.8,12.6C632.8,274.2,634,277.6,634.1,281.1z"/>
	</defs>
	<clipPath id="SVGID_2_">
		<use xlink:href="#SVGID_1_"  style="overflow:visible;"/>
	</clipPath>
</g>
<path class="st7" d="M634.1,281.1l-0.4,118.4c-0.1-3.5-1.3-7-3.5-9.7c-3.3-4.5-8.6-8.7-15.8-12.6c-13.8-7.5-30.2-10.8-49.4-9.9
	c-19.2,0.8-39.1,6.9-59.8,18.1c-20,10.8-30,21-30,30.5l0.4-118.4c0-9.5,10-19.7,30-30.5c20.7-11.2,40.7-17.3,59.8-18.1
	s35.7,2.5,49.4,9.9c7.2,3.9,12.5,8.1,15.8,12.6C632.8,274.2,634,277.6,634.1,281.1z"/>
<path class="st6" d="M680,285l-0.4,118.4c0,10.9-6.3,20.6-18.8,29.2l0.4-118.4C673.7,305.7,680,295.9,680,285z"/>
<g>
	<defs>
		<path id="SVGID_3_" d="M680,285l-0.4,118.4c0,10.9-6.3,20.6-18.8,29.2l0.4-118.4C673.7,305.7,680,295.9,680,285z"/>
	</defs>
	<clipPath id="SVGID_4_">
		<use xlink:href="#SVGID_3_"  style="overflow:visible;"/>
	</clipPath>
	<g class="st8">
		<g>
			<path class="st9" d="M680,285l-0.4,118.4c0,0.3,0,0.5,0,0.8l0.4-118.4C680,285.6,680,285.3,680,285"/>
			<path class="st9" d="M680,285.9l-0.4,118.4c0,1.7-0.2,3.3-0.6,4.9l0.4-118.4C679.8,289.2,680,287.5,680,285.9"/>
			<path class="st6" d="M679.4,290.8L679,409.2c-0.3,1.6-0.8,3.1-1.4,4.5l0.4-118.4C678.6,293.8,679,292.3,679.4,290.8"/>
			<path class="st6" d="M678,295.3l-0.4,118.4c-0.6,1.5-1.4,3-2.2,4.4l0.4-118.4C676.6,298.3,677.4,296.8,678,295.3"/>
			<path class="st6" d="M675.8,299.8l-0.4,118.4c-1,1.6-2.1,3.2-3.4,4.6l0.4-118.4C673.6,302.9,674.7,301.4,675.8,299.8"/>
			<path class="st6" d="M672.4,304.4L672,422.8c-1.6,1.9-3.4,3.8-5.4,5.4l0.4-118.4C668.9,308.2,670.7,306.3,672.4,304.4"/>
			<path class="st6" d="M667,309.8l-0.4,118.4c-1.8,1.6-3.8,3.1-5.8,4.4l0.4-118.4C663.2,312.9,665.2,311.4,667,309.8"/>
		</g>
	</g>
</g>
<path class="st10" d="M680,285l-0.4,118.4c0,10.9-6.3,20.6-18.8,29.2l0.4-118.4C673.7,305.7,680,295.9,680,285z"/>
<polygon class="st5" points="661.2,314.2 660.9,432.6 625.7,413.7 626.1,295.3 "/>
<polygon class="st5" points="576,326.8 575.7,445.2 536.1,423.9 536.5,305.5 "/>
<path class="st11" d="M427.1,414.8l0.4-118.4c0,15.3,10.7,28.8,32.4,40.5c13.5,7.3,28.2,12.1,43.5,14.1c8.8,1.2,20.6,1.4,35.6,0.8
	l-0.4,118.4c-14.9,0.7-26.8,0.4-35.5-0.8c-15.2-2-30-6.8-43.5-14.1C437.8,443.6,427,430.1,427.1,414.8z"/>
<path class="st7" d="M427.1,414.8l0.4-118.4c0,15.3,10.7,28.8,32.4,40.5c13.5,7.3,28.2,12.1,43.5,14.1c8.8,1.2,20.6,1.4,35.6,0.8
	l-0.4,118.4c-14.9,0.7-26.8,0.4-35.5-0.8c-15.2-2-30-6.8-43.5-14.1C437.8,443.6,427,430.1,427.1,414.8z"/>
<polygon class="st3" points="636.1,328.5 635.8,446.9 544.5,496.4 544.9,378 "/>
<polygon class="st5" points="544.9,378 544.5,496.4 520.9,483.6 521.2,365.2 "/>
<path class="st4" d="M643.6,242.6c21.7,11.7,33.7,24.1,36,37.2s-3.8,24.5-18.3,34.5l-35.2-19c8.9-7.7,10.4-15.7,4.5-23.9
	c-3.3-4.5-8.6-8.7-15.8-12.6c-13.8-7.4-30.2-10.7-49.4-9.9s-39.1,6.9-59.8,18.1c-20.9,11.3-30.8,21.9-29.9,31.8s7.5,18.1,19.7,24.7
	c12.2,6.5,25.9,10,39.7,10.3c14,0.5,27.9-1.9,41-6.9l-39.6-21.3l28.4-15.4l71.3,38.4L544.9,378l-23.7-12.8l17.6-13.5
	c-14.9,0.7-26.8,0.4-35.5-0.8c-15.2-2-30-6.8-43.5-14.1c-22.7-12.2-33.4-26.4-32.3-42.7c0.6-16.6,14.5-32.3,41.7-47.1
	c27.3-14.9,57.9-23,89-23.6C590.1,222.7,618.5,229.1,643.6,242.6z"/>
<polygon class="st5" points="791.4,359 791,477.4 753.8,457.3 754.2,338.9 "/>
<polygon class="st3" points="754.2,338.9 753.8,457.3 716.3,477.6 716.7,359.2 "/>
<polygon class="st11" points="730.7,397.2 730.3,515.6 688.2,492.9 688.6,374.5 "/>
<polygon class="st3" points="688.6,374.5 688.2,492.9 642.9,517.5 643.2,399.1 "/>
<g>
	<defs>
		<path id="SVGID_5_" d="M859,377l-0.4,118.4c0,1.5-0.2,2.9-0.6,4.3c-2,6.7-8,12.9-18.1,18.3c-10.1,5.6-21.4,8.7-33,9.3
			c-7.6,0.2-15.3-0.4-22.8-1.8l0.4-118.4c7.5,1.4,15.1,2,22.8,1.8c11.5-0.6,22.8-3.7,33-9.3c10.1-5.5,16.1-11.6,18.1-18.3
			C858.7,379.9,858.9,378.5,859,377z"/>
	</defs>
	<clipPath id="SVGID_6_">
		<use xlink:href="#SVGID_5_"  style="overflow:visible;"/>
	</clipPath>
	<g class="st12">
		<path class="st13" d="M859,377l-0.4,118.4c0,0.1,0,0.3,0,0.4l0.4-118.4C859,377.3,859,377.2,859,377"/>
		<path class="st13" d="M858.9,377.5l-0.4,118.4c0,0.9-0.1,1.9-0.3,2.8l0.4-118.4C858.8,379.3,858.9,378.4,858.9,377.5"/>
		<path class="st13" d="M858.6,380.2l-0.4,118.4c-0.1,0.4-0.2,0.7-0.3,1.1c-0.2,0.6-0.4,1.1-0.6,1.7l0.4-118.4
			c0.2-0.6,0.4-1.1,0.6-1.7C858.5,381,858.5,380.6,858.6,380.2"/>
		<path class="st13" d="M857.8,383l-0.4,118.4c-0.4,1-0.9,2-1.5,3l0.4-118.4C856.8,385.1,857.3,384.1,857.8,383"/>
		<path class="st13" d="M856.3,386l-0.4,118.4c-0.7,1.1-1.4,2.2-2.3,3.2l0.4-118.4C854.8,388.2,855.6,387.1,856.3,386"/>
		<path class="st13" d="M854,389.2l-0.4,118.4c-1.1,1.3-2.4,2.6-3.7,3.8l0.4-118.4C851.6,391.8,852.8,390.5,854,389.2"/>
		<path class="st13" d="M850.2,392.9l-0.3,118.4c-2.7,2.3-5.7,4.3-8.8,6.1l0.4-118.4C844.6,397.3,847.5,395.2,850.2,392.9"/>
		<path class="st13" d="M841.4,399l-0.4,118.4l-1.2,0.6c-4.7,2.6-9.7,4.7-14.8,6.2l0.4-118.4c5.2-1.6,10.1-3.6,14.8-6.2L841.4,399"
			/>
		<path class="st13" d="M825.4,405.8l-0.4,118.4c-3,0.9-6.1,1.6-9.1,2.1l0.4-118.4C819.4,407.4,822.4,406.7,825.4,405.8"/>
		<path class="st13" d="M816.3,408l-0.4,118.4c-1.9,0.3-3.8,0.6-5.7,0.7l0.3-118.4C812.5,408.5,814.4,408.3,816.3,408"/>
		<path class="st13" d="M810.6,408.7l-0.3,118.4c-1.1,0.1-2.2,0.2-3.3,0.2l-1.2,0l0.4-118.4l1.2,0
			C808.4,408.9,809.5,408.8,810.6,408.7"/>
		<path class="st13" d="M806.1,409l-0.4,118.4c-1.4,0-2.8,0-4.2,0l0.4-118.3C803.4,409,804.8,409,806.1,409"/>
		<path class="st13" d="M801.9,409l-0.4,118.4c-1.6,0-3.3-0.1-5-0.3l0.4-118.4C798.6,408.9,800.3,409,801.9,409"/>
		<path class="st13" d="M796.9,408.7l-0.4,118.4c-2-0.2-4.2-0.4-6.4-0.7l0.3-118.4C792.7,408.3,794.8,408.6,796.9,408.7"/>
		<path class="st13" d="M790.5,408l-0.4,118.4c-1.9-0.2-3.9-0.6-5.9-0.9l0.4-118.4C786.6,407.5,788.6,407.8,790.5,408"/>
	</g>
</g>
<path class="st7" d="M859,377l-0.4,118.4c0,1.5-0.2,2.9-0.6,4.3c-2,6.7-8,12.9-18.1,18.3c-10.1,5.6-21.4,8.7-33,9.3
	c-7.6,0.2-15.3-0.4-22.8-1.8l0.4-118.4c7.5,1.4,15.1,2,22.8,1.8c11.5-0.6,22.8-3.7,33-9.3c10.1-5.5,16.1-11.6,18.1-18.3
	C858.7,379.9,858.9,378.5,859,377z"/>
<path class="st11" d="M746.7,413.1l-0.4,118.4c-0.1-1.9-0.7-3.7-1.8-5.2c-2.2-3.2-7-6.8-14.2-10.8l0.4-118.4c7.3,4,12,7.6,14.2,10.8
	C746,409.5,746.6,411.3,746.7,413.1z"/>
<g>
	<defs>
		<path id="SVGID_7_" d="M746.7,413.1l-0.4,118.4c-0.1-1.9-0.7-3.7-1.8-5.2c-2.2-3.2-7-6.8-14.2-10.8l0.4-118.4
			c7.3,4,12,7.6,14.2,10.8C746,409.5,746.6,411.3,746.7,413.1z"/>
	</defs>
	<clipPath id="SVGID_8_">
		<use xlink:href="#SVGID_7_"  style="overflow:visible;"/>
	</clipPath>
	<g class="st14">
		<g>
			<path class="st11" d="M746.7,413.1l-0.4,118.4c-0.1-1.9-0.7-3.7-1.8-5.2c-2.2-3.2-7-6.8-14.2-10.8l0.4-118.4
				c7.3,4,12,7.6,14.2,10.8C746,409.5,746.6,411.3,746.7,413.1"/>
		</g>
	</g>
</g>
<path class="st7" d="M746.7,413.1l-0.4,118.4c-0.1-1.9-0.7-3.7-1.8-5.2c-2.2-3.2-7-6.8-14.2-10.8l0.4-118.4c7.3,4,12,7.6,14.2,10.8
	C746,409.5,746.6,411.3,746.7,413.1z"/>
<g>
	<g>
		<defs>
			<path id="SVGID_9_" d="M790.5,421.9l-0.4,118.4c0,1.9-0.4,3.7-1.1,5.5l0.4-118.4C790.2,425.7,790.5,423.8,790.5,421.9z"/>
		</defs>
		<clipPath id="SVGID_10_">
			<use xlink:href="#SVGID_9_"  style="overflow:visible;"/>
		</clipPath>
		<g class="st15">
			<g>
				<path class="st16" d="M790.5,421.9l-0.4,118.4c0,0.1,0,0.3,0,0.4l0.4-118.4C790.5,422.2,790.5,422,790.5,421.9"/>
				<path class="st16" d="M790.5,422.3l-0.4,118.4c0,0.9-0.1,1.8-0.3,2.6l0.4-118.4C790.4,424.1,790.5,423.2,790.5,422.3"/>
				<path class="st16" d="M790.2,424.9l-0.4,118.4c-0.2,0.8-0.4,1.7-0.7,2.5l0.4-118.4C789.8,426.6,790,425.8,790.2,424.9"/>
			</g>
		</g>
	</g>
	<path class="st7" d="M790.5,421.9l-0.4,118.4c0,1.9-0.4,3.7-1.1,5.5l0.4-118.4C790.2,425.7,790.5,423.8,790.5,421.9z"/>
</g>
<path class="st4" d="M789.5,427.4c-2.4,6.1-8.5,11.8-18.3,17.1c-10.1,5.5-21.6,9-34.7,10.6c-8.5,1.1-17,1.4-25.5,0.7
	c-9.5-0.7-18.9-2.6-27.8-5.8c-9.1-3.2-18-7.2-26.5-11.8l-77.1-41.5l170-92.2l82.7,44.6c20.6,11.4,29.3,22.6,26.2,33.7
	c-2,6.7-8,12.8-18.1,18.3c-10.1,5.6-21.4,8.7-33,9.3c-7.6,0.2-15.3-0.4-22.8-1.8C790.3,415,791.9,421.3,789.5,427.4z M705.1,429.2
	c11.1,2.1,22.6,0.1,32.5-5.5c8.8-4.8,11.3-10,7.3-15.8c-2.2-3.2-7-6.8-14.2-10.8l-42.1-22.7l-45.3,24.6l41.5,22.4
	C692.2,425.5,699,428,705.1,429.2 M754.2,338.9l-37.5,20.3l41.6,22.4c6.9,3.8,14.5,6.4,22.3,7.5c7.6,0.9,15.3-0.6,21.9-4.4
	c7.9-4.3,10.1-8.8,6.5-13.5c-3.5-3.8-9.4-7.9-17.6-12.4L754.2,338.9"/>
<polygon class="st11" points="656.7,438.3 656.3,556.7 579.2,515.1 579.6,396.7 "/>
<polygon class="st7" points="579.6,396.7 579.2,515.1 656.3,556.7 656.7,438.3 "/>
<g>
	<defs>
		<path id="SVGID_11_" d="M789.5,426.8l-0.4,118.6c-2.4,6.1-8.6,11.8-18.4,17.1c-10.1,5.5-21.7,9-34.9,10.6
			c-8.5,1.1-17.1,1.4-25.6,0.7c-9.6-0.7-19-2.6-28-5.8c-9.2-3.2-18.1-7.2-26.6-11.8l0.4-118.6c8.6,4.6,17.5,8.6,26.6,11.8
			c9,3.2,18.4,5.1,28,5.8c8.5,0.6,17.1,0.4,25.6-0.7c13.1-1.6,24.8-5.2,34.9-10.6C781,438.6,787.1,432.9,789.5,426.8z"/>
	</defs>
	<use xlink:href="#SVGID_11_"  style="overflow:visible;fill:#E41D74;"/>
	<clipPath id="SVGID_12_">
		<use xlink:href="#SVGID_11_"  style="overflow:visible;"/>
	</clipPath>
	<g class="st17">
		<path class="st6" d="M789,429.8c-2,4.3,3.6,119.1-2.6,121.7l0.4-118.6C787.5,431.9,788.3,430.9,789,429.8"/>
		<path class="st6" d="M786.7,432.9l-0.4,118.6c-1.2,1.4-2.5,2.7-3.8,3.8l0.4-118.6C784.3,435.5,785.5,434.3,786.7,432.9"/>
		<path class="st6" d="M782.9,436.7l-0.4,118.6c-2.9,2.5-6.1,4.6-9.5,6.5l0.4-118.6C776.8,441.3,779.9,439.2,782.9,436.7"/>
		<path class="st6" d="M773.4,443.2L773,561.8c-5.7,3.2-11.8,5.8-18.1,7.6l0.4-118.6C761.6,449,767.7,446.4,773.4,443.2"/>
		<path class="st6" d="M755.3,450.8l-0.4,118.6c-4.2,1.3-8.5,2.3-12.8,3l0.4-118.6C746.8,453.1,751.1,452.1,755.3,450.8"/>
		<path class="st6" d="M742.5,453.8l-0.4,118.6c-3.3,0.6-6.8,1-10.2,1.3l0.4-118.6C735.7,454.8,739.1,454.3,742.5,453.8"/>
		<path class="st6" d="M732.3,455.1l-0.4,118.6c-2.5,0.2-5,0.4-7.5,0.5l0.4-118.6C727.3,455.5,729.8,455.3,732.3,455.1"/>
		<path class="st6" d="M724.8,455.5l-0.4,118.6c-2.3,0.1-4.5,0.1-6.8,0l0.4-118.6C720.3,455.6,722.5,455.6,724.8,455.5"/>
		<path class="st6" d="M718,455.6l-0.4,118.6c-2.2,0-4.4-0.2-6.6-0.3l0.4-118.6C713.6,455.4,715.8,455.5,718,455.6"/>
		<path class="st6" d="M711.4,455.2l-0.4,118.6c-2.1-0.2-4.2-0.4-6.3-0.7l0.4-118.6C707.2,454.9,709.3,455.1,711.4,455.2"/>
		<path class="st6" d="M705.1,454.6l-0.4,118.6c-2.1-0.3-4.2-0.6-6.3-1l0.4-118.6C700.9,454,703,454.3,705.1,454.6"/>
		<path class="st6" d="M698.8,453.6l-0.4,118.6c-2.4-0.5-4.8-1-7.1-1.6l0.4-118.6C694.1,452.6,696.4,453.1,698.8,453.6"/>
		<path class="st6" d="M691.7,451.9l-0.4,118.6c-3.4-0.9-6.8-2-10.2-3.2l0.4-118.6C684.8,449.9,688.2,451,691.7,451.9"/>
		<path class="st6" d="M681.5,448.7l-0.4,118.6c-8.4-3.1-16.6-6.8-24.5-11l0.4-118.6C664.9,441.9,673.1,445.6,681.5,448.7"/>
	</g>
</g>
<polygon class="st3" points="956.4,416 956,534.4 816.6,610 817,491.6 "/>
<polygon class="st4" points="956.4,416 817,491.6 902.4,537.7 871.8,554.2 750.7,488.9 920.6,396.7 "/>
<polygon class="st3" points="902.4,537.7 902,656 871.5,672.6 871.8,554.2 "/>
<polygon class="st5" points="871.8,554.2 871.5,672.6 750.3,607.3 750.7,488.9 "/>
<polygon class="st3" points="1101.6,494.2 1101.2,612.6 1031.2,650.6 1031.5,532.2 "/>
<polygon class="st3" points="1213.9,554.8 1213.5,673.2 1073.4,673.2 1073.8,554.8 "/>
<polygon class="st3" points="1023,555.5 1022.7,673.9 988.1,674 988.5,555.6 "/>
<polygon class="st3" points="988.5,555.6 988.1,674 931.2,704.8 931.6,586.5 "/>
<polygon class="st5" points="931.6,586.5 931.2,704.8 896.1,685.9 896.4,567.5 "/>
<polygon class="st5" points="1047.5,648.9 1047.1,767.3 1001.2,742.5 1001.5,624.1 "/>
<polygon class="st4" points="1213.9,554.8 1073.8,554.8 1047.5,648.9 1001.5,624.1 1023,555.5 988.5,555.6 931.6,586.5 896.4,567.5 
	1066.4,475.3 1101.6,494.2 1031.5,532.2 1167.7,529.9 "/>
<polygon class="st3" points="1073.8,554.8 1073.4,673.2 1047.1,767.3 1047.5,648.9 "/>
<path class="st6" d="M1298,639.8l-0.4,118.4c0-6.8-5.8-13.4-17.4-19.7c-12.7-6.9-28-9.5-45.8-7.8s-36.2,7.7-55.2,18
	c-19.1,10.3-29.5,20.2-31.2,29.5c-0.2,1.1-0.3,2.3-0.3,3.4l0.4-118.4c0-1.2,0.1-2.3,0.3-3.4c1.7-9.3,12.1-19.2,31.2-29.5
	c19.1-10.3,37.5-16.4,55.2-18c17.8-1.7,33,0.9,45.8,7.8C1292.3,626.3,1298,632.9,1298,639.8z"/>
<path class="st7" d="M1298,639.8l-0.4,118.4c0-6.8-5.8-13.4-17.4-19.7c-12.7-6.9-28-9.5-45.8-7.8s-36.2,7.7-55.2,18
	c-19.1,10.3-29.5,20.2-31.2,29.5c-0.2,1.1-0.3,2.3-0.3,3.4l0.4-118.4c0-1.2,0.1-2.3,0.3-3.4c1.7-9.3,12.1-19.2,31.2-29.5
	c19.1-10.3,37.5-16.4,55.2-18c17.8-1.7,33,0.9,45.8,7.8C1292.3,626.3,1298,632.9,1298,639.8z"/>
<path class="st6" d="M1343.5,643.5l-0.4,118.4c0,2.8-0.5,5.7-1.4,8.4c-3.2,9.6-9.9,17.5-20,23.5l0.4-118.4c10.1-6,16.7-13.9,20-23.5
	C1343,649.1,1343.5,646.3,1343.5,643.5z"/>
<g>
	<defs>
		<path id="SVGID_13_" d="M1343.5,643.5l-0.4,118.4c0,2.8-0.5,5.7-1.4,8.4c-3.2,9.6-9.9,17.5-20,23.5l0.4-118.4
			c10.1-6,16.7-13.9,20-23.5C1343,649.1,1343.5,646.3,1343.5,643.5z"/>
	</defs>
	<clipPath id="SVGID_14_">
		<use xlink:href="#SVGID_13_"  style="overflow:visible;"/>
	</clipPath>
	<g class="st18">
		<g>
			<path class="st6" d="M1343.5,643.5l-0.4,118.4c0,0.2,0,0.5,0,0.7l0.4-118.4C1343.5,643.9,1343.5,643.7,1343.5,643.5"/>
			<path class="st6" d="M1343.5,644.2l-0.4,118.4c-0.1,1.6-0.3,3.2-0.6,4.8l0.4-118.4C1343.2,647.4,1343.4,645.8,1343.5,644.2"/>
			<path class="st6" d="M1342.9,648.9l-0.4,118.4c-0.2,1-0.5,1.9-0.8,2.9c-0.2,0.7-0.5,1.4-0.8,2.1l0.4-118.4
				c0.3-0.7,0.6-1.4,0.8-2.1C1342.4,650.8,1342.7,649.9,1342.9,648.9"/>
			<path class="st6" d="M1341.3,653.9l-0.4,118.4c-0.8,2-1.7,3.9-2.8,5.7l0.4-118.4C1339.6,657.8,1340.6,655.9,1341.3,653.9"/>
			<path class="st6" d="M1338.5,659.6l-0.4,118.4c-1.1,1.8-2.3,3.5-3.7,5.1l0.4-118.4C1336.2,663.2,1337.4,661.4,1338.5,659.6"/>
			<path class="st6" d="M1334.8,664.8l-0.4,118.4c-1.5,1.8-3.2,3.5-5,5.1l0.4-118.4C1331.6,668.3,1333.3,666.6,1334.8,664.8"/>
			<path class="st6" d="M1329.8,669.8l-0.4,118.4c-2.4,2.1-4.9,3.9-7.7,5.5l0.4-118.4C1324.9,673.7,1327.4,671.9,1329.8,669.8"/>
		</g>
	</g>
</g>
<path class="st7" d="M1343.5,643.5l-0.4,118.4c0,2.8-0.5,5.7-1.4,8.4c-3.2,9.6-9.9,17.5-20,23.5l0.4-118.4c10.1-6,16.7-13.9,20-23.5
	C1343,649.1,1343.5,646.3,1343.5,643.5z"/>
<polygon class="st5" points="1324,675.3 1323.6,793.7 1287.9,774.5 1288.2,656.1 "/>
<path class="st4" d="M1309.6,602.9c28.5,15.3,39.9,31.6,34.3,48.9c-3.2,9.6-9.9,17.5-20,23.5l-35.8-19.3c5.9-5.7,9.1-10.5,9.7-14.7
	c1-7.4-4.8-14.5-17.3-21.2c-12.7-6.9-28-9.5-45.8-7.8c-17.8,1.7-36.2,7.7-55.2,18c-19.1,10.3-29.5,20.2-31.2,29.5
	c-1.7,9.3,3.4,17.2,15.3,23.7c12.3,6.6,26.3,9.6,40.3,8.5c7.9-0.5,17.5-2.4,28.6-5.9l35.5,19.1c-21.9,8.5-45.2,12.5-68.7,11.9
	c-24.2-0.5-46.1-6-65.8-16.6c-24.3-13.1-35.6-27.7-33.9-43.7s16.4-31.5,43.9-46.4c29.7-16.1,60.4-24.2,92.4-24.4
	C1263.8,585.8,1288.4,591.4,1309.6,602.9z"/>
<path class="st11" d="M1099.3,778.3l0.4-118.4c0,14.8,11.3,28.3,34.1,40.6c19.7,10.6,41.6,16.2,65.8,16.6
	c23.5,0.6,46.8-3.4,68.7-11.9l-0.4,118.4c-21.9,8.5-45.2,12.5-68.7,11.9c-24.2-0.5-46.1-6-65.8-16.6
	C1110.6,806.6,1099.2,793.1,1099.3,778.3z"/>
<path class="st7" d="M1099.3,778.3l0.4-118.4c0,14.8,11.3,28.3,34.1,40.6c19.7,10.6,41.6,16.2,65.8,16.6
	c23.5,0.6,46.8-3.4,68.7-11.9l-0.4,118.4c-21.9,8.5-45.2,12.5-68.7,11.9c-24.2-0.5-46.1-6-65.8-16.6
	C1110.6,806.6,1099.2,793.1,1099.3,778.3z"/>
<polygon class="st3" points="1444.4,679 1444.1,797.4 1379.3,832.6 1379.6,714.2 "/>
<polygon class="st3" points="1416.8,765.9 1416.5,884.3 1350,848.5 1350.3,730.1 "/>
<polygon class="st3" points="1350.3,730.1 1350,848.5 1274.1,889.6 1274.4,771.2 "/>
<polygon class="st5" points="1274.4,771.2 1274.1,889.6 1238.6,870.5 1238.9,752.1 "/>
<polygon class="st4" points="1546.4,734 1376.5,826.2 1340.9,807.1 1416.8,765.9 1350.3,730.1 1274.4,771.2 1238.9,752.1 
	1408.9,659.9 1444.4,679 1379.6,714.2 1446.1,750 1510.9,714.9 "/>
<polygon class="st3" points="1546.4,734 1546.1,852.4 1376.1,944.6 1376.5,826.2 "/>
<polygon class="st5" points="1376.5,826.2 1376.1,944.6 1340.6,925.5 1340.9,807.1 "/>
<polygon class="st3" points="1564.1,796.9 1563.8,915.3 1443.2,980.8 1443.5,862.4 "/>
<polygon class="st5" points="1443.5,862.4 1443.2,980.8 1409.9,962.8 1410.2,844.4 "/>
<polygon class="st3" points="1617.7,772.4 1617.3,890.8 1566.7,991.7 1567.1,873.3 "/>
<polygon class="st4" points="1718.9,827 1548.9,919.2 1513.2,899.9 1564.1,796.9 1443.5,862.4 1410.2,844.4 1580.2,752.2 
	1617.7,772.4 1567.1,873.3 1685.6,809 "/>
<polygon class="st3" points="1718.9,827 1718.5,945.4 1548.6,1037.6 1548.9,919.2 "/>
<polygon class="st5" points="1548.9,919.2 1548.6,1037.6 1512.8,1018.3 1513.2,899.9 "/>
</svg>
